<svg width="128" height="128" viewBox="0 0 128 128" fill="none" xmlns="http://www.w3.org/2000/svg">
<rect width="128" height="128" rx="64" fill="#CFB674"/>
<g clip-path="url(#clip0_570_1602)">
<path d="M44.6831 112.728L44.5264 112.201L43.7545 110.114H40.0514L39.2179 112.201L39.0445 112.728H38.748L41.8582 104.903H42.1043L44.9572 112.728H44.6775H44.6831ZM41.998 105.318H41.9477L40.1465 109.862H43.6594L41.9924 105.318H41.998Z" fill="white"/>
<path d="M52.9393 105.15H50.5507V112.728H50.3046V105.15H47.8936L47.8545 105.1L47.9048 104.904H52.9504L52.9896 104.954L52.9393 105.15Z" fill="white"/>
<path d="M60.6927 112.728H56.8833V104.904H60.6535L60.6927 104.954L60.6423 105.15H57.1294V108.555H60.0438L60.083 108.606L60.0326 108.802H57.1294V112.487H60.7039L60.743 112.538L60.6927 112.734V112.728Z" fill="white"/>
<path d="M68.0706 112.728H64.6416V104.904H64.8877V112.482H68.0874L68.1265 112.532L68.0762 112.728H68.0706Z" fill="white"/>
<path d="M71.7349 112.728V104.904H71.981V112.728H71.7349Z" fill="white"/>
<path d="M80.6849 112.728H76.8755V104.904H80.6457L80.6849 104.954L80.6345 105.15H77.1216V108.555H80.036L80.0751 108.606L80.0248 108.802H77.1216V112.487H80.6961L80.7352 112.538L80.6849 112.734V112.728Z" fill="white"/>
<path d="M89.0026 112.667V112.717C88.9522 112.768 88.9187 112.79 88.8571 112.818L88.7844 112.796C87.9621 111.713 87.207 110.619 86.5301 109.503H84.8911V112.734H84.645V104.909L86.3735 104.887C87.7943 104.887 88.5886 105.65 88.5886 107.035C88.5886 108.241 87.951 109.099 86.7874 109.453C87.4587 110.558 88.1971 111.612 89.0026 112.672V112.667ZM86.6308 109.251C87.7328 108.97 88.3481 108.168 88.3481 107.029C88.3481 105.891 87.6769 105.173 86.463 105.128L84.8967 105.139V109.256H86.6364L86.6308 109.251Z" fill="white"/>
<path d="M48.6436 72.8472L49.505 72.8079C51.5132 72.7238 51.8824 72.2302 51.8824 66.593V51.6165C51.8824 45.9793 51.5132 45.4857 49.505 45.4016L48.6436 45.3623V45.2389H62.1022C71.1698 45.2389 75.9692 51.4931 75.9692 59.0655C75.9692 66.6378 70.9236 72.9706 62.1414 72.9706H48.6436V72.8472ZM57.5489 45.4072C55.7421 45.4072 55.619 46.0634 55.619 51.6221V66.5986C55.619 72.1516 55.7421 72.8135 57.5489 72.8135H62.1022C69.0385 72.8135 71.7459 66.105 71.7459 59.1103C71.7459 52.1157 68.5015 45.4072 62.1022 45.4072H57.5489Z" fill="white"/>
<path d="M70.974 95.0987C69.128 95.0987 67.3604 94.7285 65.4753 93.4945C64.86 93.085 64.4908 92.8775 63.9594 92.8775C63.0588 92.8775 62.1134 93.7805 61.0898 95.0987H61.0059V85.8828H61.1289L61.6212 87.4029C62.6896 90.6506 65.2739 94.9304 70.9348 94.9304C74.5876 94.9304 77.3341 93.2869 77.3341 89.5007C77.3341 81.1487 62.1526 82.8371 62.1526 73.5763C62.1526 69.2124 65.7662 66.2957 70.2356 66.2957C71.9585 66.2957 73.4744 66.75 74.912 67.6923C75.4434 68.0625 75.8574 68.2701 76.2657 68.2701C76.965 68.2701 77.8264 67.4455 78.7662 66.2957H78.8501V74.2775H78.727L78.2739 72.8359C77.0433 68.6795 73.7597 66.4583 70.3531 66.4583C66.9465 66.4583 65.0166 68.2252 65.0166 70.9849C65.0166 79.4996 80.4051 77.8169 80.4051 87.5263C80.4051 92.0529 76.3832 95.0987 70.9684 95.0987H70.974Z" fill="white"/>
<path d="M65.4191 33.8018H55.7754L54.9978 35.8604C54.2203 37.8741 53.8064 40.056 53.8064 41.8678C53.8064 43.6795 54.1756 45.0818 56.1054 45.2052L56.9669 45.2445V45.3679H48.6377V45.2445L49.0908 45.2052C50.7745 45.0426 51.5521 44.42 54.8356 35.8604L61.9733 17.1763H62.4264L71.0856 38.4069C73.5077 44.3302 73.9161 44.9472 75.5998 45.1548L75.9298 45.194V45.3174H66.1239V45.194L67.1923 45.1548C69.8158 45.0706 69.1222 43.3879 67.2762 38.6145L65.4303 33.8018H65.4191ZM55.8593 33.6391H65.3408L60.5804 21.2541L55.8593 33.6391Z" fill="white"/>
</g>
<defs>
<clipPath id="clip0_570_1602">
<rect width="51.2" height="104.107" fill="white" transform="translate(38.2783 11.9467)"/>
</clipPath>
</defs>
</svg>
