<svg width="158" height="53" viewBox="0 0 158 53" fill="none" xmlns="http://www.w3.org/2000/svg">
<g clip-path="url(#clip0_95_561)">
<path fill-rule="evenodd" clip-rule="evenodd" d="M154.908 14.3818C153.392 14.3818 152 13.193 152 11.4642C152 9.78239 153.344 8.54492 154.908 8.54492C156.546 8.54492 157.833 9.8163 157.833 11.4721C157.833 13.0287 156.604 14.3818 154.908 14.3818ZM154.908 8.80842C153.468 8.80842 152.262 9.97284 152.262 11.4642C152.262 12.9643 153.458 14.12 154.917 14.12C156.449 14.12 157.571 12.8904 157.571 11.4721C157.571 9.99719 156.44 8.80842 154.908 8.80842ZM154.876 9.60412C155.253 9.60412 155.516 9.61107 155.738 9.69282C156.137 9.83283 156.325 10.2024 156.325 10.5459C156.325 10.7998 156.226 11.2503 155.573 11.4138C155.926 11.5616 156.03 11.7756 156.098 12.1851C156.171 12.6939 156.212 12.9548 156.375 13.2852H155.63C155.523 13.0695 155.506 12.9313 155.432 12.4799C155.311 11.7016 155.261 11.6286 154.335 11.6286V13.2852H153.679V9.60412H154.876ZM154.343 11.1025H154.883C155.155 11.1025 155.672 11.1025 155.672 10.5955C155.672 10.4476 155.605 10.2502 155.409 10.1598C155.277 10.112 155.163 10.112 154.761 10.112H154.343V11.1025Z" fill="#F9F7F3"/>
<mask id="mask0_95_561" style="mask-type:luminance" maskUnits="userSpaceOnUse" x="121" y="8" width="38" height="35">
<path d="M158.043 8.36072V42.9139H121.506V8.36072H158.043Z" fill="white"/>
</mask>
<g mask="url(#mask0_95_561)">
<path fill-rule="evenodd" clip-rule="evenodd" d="M147.688 42.236C147.505 41.729 147.298 41.0489 147.298 41.0489L143.747 31.6336C143.658 31.4257 143.51 31.3223 143.303 31.3223H133.403C133.226 31.3223 133.093 31.4405 133.003 31.6762L130.606 38.0279C130.162 39.1245 129.94 40.0263 129.94 40.7385C129.94 41.1803 130.074 41.5211 130.34 41.7586C130.606 41.996 131.064 42.1134 131.717 42.1134H132.382C132.826 42.1134 133.048 42.2334 133.048 42.4699C133.048 42.7656 132.795 42.9143 132.293 42.9143C131.73 42.9143 130.932 42.8978 129.896 42.8691C128.741 42.8099 127.972 42.7795 127.586 42.7795C127.499 42.7795 127.173 42.7943 126.61 42.8247C126.167 42.8247 125.537 42.8395 124.723 42.8691C123.91 42.8978 123.117 42.9143 122.348 42.9143C121.785 42.9143 121.505 42.7656 121.505 42.4699C121.505 42.2334 121.682 42.1134 122.036 42.1134C122.48 42.1134 122.941 42.0855 123.414 42.0255C124.359 41.9073 125.101 41.5307 125.634 40.8924C126.167 40.2567 126.685 39.301 127.187 38.0279L138.331 10.1375C138.598 9.45656 138.82 8.99044 138.997 8.73825C139.175 8.48606 139.367 8.36084 139.574 8.36084C139.901 8.36084 140.27 8.83478 140.685 9.78267C140.891 10.2262 141.336 11.3071 142.015 13.0246L144.679 19.7302L148.92 30.2787L150.097 33.2093L151.695 37.0957C152.435 38.8714 153.116 40.0863 153.736 40.7385C154.359 41.3881 154.981 41.7881 155.601 41.9368C156.193 42.0542 156.815 42.1134 157.465 42.1134C157.851 42.1134 158.043 42.2334 158.043 42.4699C158.043 42.6473 157.91 42.7656 157.644 42.8247C157.377 42.8838 156.83 42.9143 156.001 42.9143L151.764 42.8177C150.506 42.8177 149.243 42.9125 148.285 42.9125C148.015 42.9125 147.869 42.743 147.688 42.236ZM134.291 29.1021H142.46C142.607 29.1021 142.681 29.0125 142.681 28.8343L138.686 17.8649V17.8214C138.628 17.584 138.554 17.464 138.464 17.464C138.345 17.464 138.257 17.5997 138.197 17.8649L134.113 28.7899C134.113 28.9978 134.172 29.1021 134.291 29.1021Z" fill="#F9F7F3"/>
</g>
<path fill-rule="evenodd" clip-rule="evenodd" d="M93.319 26.0189C93.3156 26.1276 93.2973 29.1382 93.2973 29.1382C93.2677 30.0252 93.253 32.4236 93.253 35.0794V39.9528C93.253 40.5433 93.2234 40.9198 93.1643 41.0824C93.1052 41.2442 92.9435 41.3998 92.6775 41.5477C91.3483 42.226 89.7253 42.7286 87.8067 43.0539C85.8872 43.3773 83.9538 43.5408 82.0057 43.5408C79.2012 43.5408 76.5733 43.2008 74.1226 42.5225C71.6737 41.8442 69.5039 40.7937 67.6149 39.3771C65.7258 37.9596 64.2419 36.143 63.1639 33.9289C62.086 31.714 61.5479 29.1295 61.5479 26.1772C61.5479 22.87 62.279 19.9611 63.7403 17.4505C65.2016 14.9408 67.0394 13.0207 69.2527 11.6928C71.173 10.5414 73.0751 9.77267 74.9659 9.38916C76.8549 9.00566 78.9213 8.81348 81.1642 8.81348C81.9031 8.81348 82.655 8.83609 83.4227 8.88044C84.1894 8.92305 84.9883 8.99088 85.8142 9.07958C86.6392 9.16741 87.319 9.25003 87.851 9.32307C88.383 9.39612 88.7655 9.46221 89.002 9.52222C89.5922 9.64048 90.2121 9.74484 90.8615 9.8318C91.5117 9.9205 92.0568 9.97964 92.5001 10.0083C92.9139 10.0388 93.1191 10.2153 93.1191 10.5414C93.1191 10.6301 93.1052 10.7919 93.0756 11.0284C93.0165 11.678 92.9574 12.4972 92.8983 13.4868C92.8392 14.4764 92.8096 15.9157 92.8096 17.8053C92.8096 18.4254 92.6488 18.7358 92.3219 18.7358C92.0863 18.7358 91.9394 18.5428 91.8803 18.1601C91.7908 17.4505 91.6439 16.794 91.4378 16.1887C91.2301 15.5826 90.8762 15.0147 90.3738 14.4825C89.5783 13.6277 88.3004 12.8363 86.5435 12.1137C84.7884 11.3893 82.7724 11.0284 80.5009 11.0284C78.8761 11.0284 77.3565 11.1988 75.9395 11.538C74.5234 11.8763 73.1203 12.6233 71.732 13.7729C70.435 14.866 69.43 16.2922 68.7215 18.0488C68.013 19.8055 67.6583 21.9986 67.6583 24.6266C67.6583 26.9885 68.0208 29.1895 68.7432 31.227C69.4674 33.2646 70.5071 35.0351 71.8659 36.543C73.2237 38.0483 74.8546 39.2145 76.7575 40.0415C78.6614 40.8685 80.7651 41.2816 83.0671 41.2816C83.8947 41.2816 84.6093 41.2529 85.2152 41.1937C85.8211 41.1337 86.3601 41.0016 86.8321 40.7937C87.3929 40.5285 87.6737 39.9832 87.6737 39.1553V34.9925C87.6737 32.3941 87.6589 30.0252 87.6293 29.1382C87.6006 28.3703 87.452 27.7955 87.1877 27.4111C86.9208 27.0268 86.4331 26.7607 85.7246 26.6146C85.3717 26.525 84.7944 26.4798 83.9973 26.4798C83.5548 26.4798 83.334 26.3624 83.334 26.1267C83.334 25.8328 83.6443 25.6841 84.2642 25.6841C85.0613 25.6841 86.4036 25.7137 88.2926 25.7728C89.5922 25.8015 90.3894 25.8154 90.6833 25.8154C91.0162 25.8154 91.8029 25.791 93.0043 25.738C93.2634 25.738 93.3208 25.9102 93.319 26.0189ZM107.191 30.0749V22.2787V15.4566C107.191 14.4826 107.163 13.6269 107.104 12.8869C107.015 11.4416 106.512 10.6137 105.597 10.4076C105.155 10.2893 104.622 10.231 104.003 10.231C103.531 10.231 103.295 10.0832 103.295 9.78841C103.295 9.551 103.649 9.4336 104.358 9.4336C104.919 9.4336 105.997 9.4623 107.589 9.5223C108.83 9.551 109.671 9.56491 110.115 9.56491C110.468 9.56491 111.192 9.551 112.284 9.5223C113.819 9.4623 114.896 9.4336 115.517 9.4336C116.137 9.4336 116.445 9.551 116.445 9.78841C116.445 10.0832 116.211 10.231 115.738 10.231C115.383 10.231 114.941 10.2754 114.409 10.3641C113.819 10.4815 113.413 10.7328 113.19 11.1172C112.971 11.4998 112.83 12.0912 112.771 12.8869C112.711 13.6269 112.681 14.4826 112.681 15.4566V22.2787V30.0749C112.681 32.8211 112.689 34.9091 112.705 36.344C112.718 37.7745 112.771 38.918 112.86 39.7763C112.947 40.4546 113.111 40.9651 113.347 41.3043C113.583 41.6434 114.009 41.8573 114.631 41.9452C114.956 41.9756 115.325 42.0113 115.738 42.0565C116.151 42.1008 116.534 42.1243 116.888 42.1243C117.361 42.1243 117.598 42.2408 117.598 42.4774C117.598 42.7739 117.316 42.9209 116.756 42.9209C115.517 42.9209 113.892 42.8913 111.886 42.8304C110.941 42.8026 110.262 42.7878 109.848 42.7878C109.613 42.7878 108.918 42.8026 107.767 42.8304C106.055 42.8913 104.889 42.9209 104.269 42.9209C103.679 42.9209 103.384 42.7739 103.384 42.4774C103.384 42.2408 103.619 42.1243 104.092 42.1243C104.622 42.1243 105.155 42.0634 105.686 41.9452C106.394 41.7982 106.824 41.0599 106.97 39.7311C107.059 38.8754 107.117 37.7293 107.148 36.2987C107.177 34.8665 107.191 32.7916 107.191 30.0749Z" fill="#F9F7F3"/>
<path fill-rule="evenodd" clip-rule="evenodd" d="M35.2369 13.3417L36.499 12.6669L36.1224 12.4038L35.2984 12.8931L35.4658 11.9458L35.0893 11.6836L34.8934 13.1013L34.3854 13.8291L34.7288 14.0695L35.2369 13.3417Z" fill="white"/>
<path fill-rule="evenodd" clip-rule="evenodd" d="M28.4333 10.5865L28.7324 10.6387L29.001 11.5614L29.4843 11.6449L29.167 10.6431C29.2218 10.6335 29.2757 10.617 29.3278 10.5926C29.38 10.5674 29.4287 10.5352 29.473 10.4935C29.5174 10.4535 29.5547 10.4048 29.586 10.3482C29.6173 10.2917 29.6391 10.2265 29.653 10.1508C29.6677 10.0604 29.6677 9.97344 29.6495 9.88909C29.6321 9.80561 29.5991 9.72821 29.5495 9.65864C29.5 9.58994 29.4348 9.52994 29.3557 9.48037C29.2757 9.4308 29.1818 9.39602 29.074 9.37776L28.2386 9.2334L27.8708 11.3657L28.2864 11.437L28.4333 10.5865ZM28.5906 9.67603L28.9827 9.74473C29.074 9.76039 29.1435 9.79865 29.1896 9.85952C29.2357 9.92127 29.2513 9.99431 29.2366 10.0778C29.2218 10.1622 29.1835 10.2256 29.1183 10.2682C29.0549 10.31 28.9766 10.3239 28.8854 10.3074L28.4924 10.2395L28.5906 9.67603Z" fill="white"/>
<path fill-rule="evenodd" clip-rule="evenodd" d="M38.1007 14.5825L37.0609 14.5248L37.0042 15.5659L38.043 15.6226L38.1007 14.5825Z" fill="white"/>
<path fill-rule="evenodd" clip-rule="evenodd" d="M11.1546 24.9449L10.7799 24.9317L10.7468 25.9339L10.2227 25.9169L10.2501 25.0642L9.87357 25.0519L9.84613 25.9046L9.33996 25.8885L9.37118 24.8872L8.99558 24.8749L8.94922 26.2983L11.1101 26.3674L11.1546 24.9449Z" fill="white"/>
<path fill-rule="evenodd" clip-rule="evenodd" d="M27.7778 34.1035L27.5857 34.6165H30.8176L30.7088 34.1035H27.7778Z" fill="white"/>
<path fill-rule="evenodd" clip-rule="evenodd" d="M32.6247 12.8032L33.392 11.1905L33.9019 11.4328L34.0637 11.093L32.6616 10.4258L32.4998 10.7655L33.0107 11.0088L32.2434 12.6224L32.6247 12.8032Z" fill="white"/>
<path fill-rule="evenodd" clip-rule="evenodd" d="M34.8622 38.2319L35.0997 38.5234L35.8764 37.8912L36.2066 38.2972L35.5472 38.8376L35.7846 39.13L36.446 38.5906L36.7658 38.9824L35.9899 39.6165L36.2265 39.908L37.3296 39.0079L35.9653 37.3328L34.8622 38.2319Z" fill="white"/>
<path fill-rule="evenodd" clip-rule="evenodd" d="M39.413 19.5409L39.6031 19.9857L40.4594 20.0746L39.9286 20.7561L40.1178 21.1999L40.8756 20.1466L42.0914 20.3131L41.905 19.874L41.1141 19.7973L41.6089 19.1774L41.4225 18.7345L40.6968 19.7273L39.413 19.5409Z" fill="white"/>
<path fill-rule="evenodd" clip-rule="evenodd" d="M36.2943 18.6381L36.276 18.5442H15.7278L15.7113 18.6398C15.7035 18.679 15.0263 22.6688 15.9504 27.2117C16.8058 31.4137 19.2416 36.9645 25.9954 39.5437L26.0363 39.5603L26.0789 39.5429C32.9265 36.8671 35.3389 31.3215 36.1578 27.1404C37.0428 22.6201 36.3021 18.6772 36.2943 18.6381ZM28.4034 26.6438C28.4426 26.6699 28.493 26.6699 28.5008 26.7151C28.5078 26.7586 28.5695 26.8204 28.5947 26.8769C28.6112 26.9125 28.6442 26.9273 28.6312 26.9525C28.6234 26.9691 28.5547 27.036 28.526 27.0438C28.5104 27.0473 28.4799 27.0134 28.4191 27.0291C28.3661 27.0438 28.2418 27.0317 28.2139 27.0647C28.1939 27.0873 28.1131 27.1108 28.0644 27.1221C28.0279 26.9638 27.9905 26.803 27.9497 26.6369C28.0922 26.6186 28.2322 26.6012 28.3721 26.5856C28.38 26.6073 28.3904 26.6351 28.4034 26.6438ZM20.9916 26.8221C20.9846 26.9804 20.696 27.0543 20.8282 27.1639C20.9455 27.2621 20.8586 27.3526 20.7577 27.4621H20.1779C20.1692 27.3013 20.1631 27.1404 20.1614 26.983C20.4187 26.8691 20.6899 26.7569 20.9716 26.6482C20.9794 26.7003 20.9925 26.7951 20.9916 26.8221ZM32.6718 26.9282C32.6814 26.9856 32.7431 27.0473 32.7544 27.1221C32.7744 27.2534 32.7388 27.3978 32.7214 27.4352C32.717 27.4439 32.7144 27.4534 32.7127 27.4621H31.7277C31.7077 27.3543 31.6851 27.2465 31.6625 27.1395C31.633 27.0047 31.6008 26.8691 31.566 26.7325C31.6365 26.7464 31.7573 26.7786 31.7773 26.8247C31.7938 26.8612 31.7529 26.9143 31.7816 26.9317C31.8138 26.9508 31.846 26.9699 31.8816 26.9891C31.9155 27.0091 31.8773 27.0569 31.919 27.0752C31.9764 27.1004 31.9738 27.0743 32.0285 27.1125C32.145 27.196 32.1667 26.9943 32.1946 26.9786C32.2719 26.9343 32.3284 27.0256 32.4171 27.0247C32.4719 27.0238 32.5519 26.8934 32.6231 26.836C32.6475 26.816 32.6701 26.8047 32.691 26.809C32.7083 26.8134 32.6614 26.8743 32.6718 26.9282ZM22.8276 27.0604C22.7589 27.0212 22.6216 27.0612 22.5459 27.0456C22.5407 27.0447 22.3955 26.9717 22.3399 26.9386C22.3251 26.9291 22.339 26.916 22.3503 26.9108C22.3712 26.9012 22.3955 26.883 22.4034 26.8812C22.4164 26.8777 22.3782 26.809 22.3556 26.7934C22.3338 26.7786 22.319 26.7482 22.3017 26.7212C22.2799 26.689 22.2521 26.649 22.2504 26.6473C22.206 26.5621 22.2538 26.5064 22.1295 26.4969C22.1017 26.4951 21.9704 26.7108 21.874 26.716C21.86 26.5864 21.847 26.4586 21.8374 26.3334C22.5764 26.0881 22.805 26.0212 23.4405 25.842C23.51 26.2908 23.5935 26.756 23.6865 27.2291C23.4474 27.2952 23.2118 27.363 22.9771 27.4334C22.9971 27.3926 23.0206 27.3265 23.0197 27.3099C23.0189 27.2543 22.8519 27.076 22.8276 27.0604ZM19.3451 26.169C19.3451 26.1821 19.2938 26.1777 19.2755 26.1777C19.2573 26.1777 19.2434 26.1873 19.239 26.2012C19.2347 26.2151 19.2338 26.2568 19.2382 26.289C19.2434 26.3212 19.1234 26.4986 19.1052 26.5134C19.0912 26.5238 19.0217 26.5282 18.9661 26.5169C18.9939 26.3699 19.0252 26.2255 19.0608 26.0838C19.126 26.0455 19.1938 26.0073 19.2625 25.969C19.3886 26.0299 19.3451 26.1586 19.3451 26.169ZM19.1512 25.7585C19.2182 25.5411 19.2947 25.3307 19.3799 25.1272C19.432 25.1863 19.525 25.2455 19.505 25.3359C19.4885 25.4098 19.4259 25.4481 19.4059 25.5185C19.3912 25.5724 19.3773 25.6011 19.3486 25.6516C19.2816 25.6872 19.2156 25.7229 19.1512 25.7585ZM20.1449 24.5628C20.0823 24.6072 20.1223 24.6324 20.0197 24.6828C20.0066 24.6889 19.8676 24.8681 19.8954 24.9185C19.9232 24.9698 19.8276 25.1829 19.8849 25.215C19.9414 25.2472 19.8493 25.3229 19.8493 25.3368C19.8484 25.3507 19.7163 25.335 19.685 25.2846C19.6094 25.1646 19.7146 25.0437 19.6998 25.0063C19.6746 24.9428 19.5685 24.8733 19.4998 24.862C19.5242 24.8107 19.5494 24.7602 19.5755 24.7098C19.798 24.5776 20.0484 24.4463 20.3222 24.3159C20.2944 24.3941 20.2674 24.4741 20.2422 24.555C20.2162 24.5472 20.1875 24.5341 20.1449 24.5628ZM20.623 24.1785C20.916 24.0489 21.2393 23.9202 21.5827 23.7932C21.6166 23.7819 21.6497 23.7697 21.6827 23.7576C21.6253 24.0506 21.5845 24.368 21.5619 24.7054C21.5149 24.722 21.4688 24.7394 21.421 24.7559C21.3767 24.7167 21.3689 24.635 21.3489 24.6107C21.3132 24.5672 21.2489 24.5924 21.2228 24.5811C21.1915 24.5663 21.1924 24.515 21.1542 24.515C21.1342 24.515 21.0064 24.4767 20.9464 24.4393C20.9047 24.4124 20.7099 24.3037 20.6682 24.3063C20.6291 24.3089 20.5952 24.3219 20.5639 24.3402C20.5813 24.2906 20.6013 24.2376 20.623 24.1785ZM20.6117 26.5221C20.5795 26.5342 20.5474 26.5473 20.5161 26.5603C20.5169 26.436 20.543 26.4803 20.5613 26.396C20.5665 26.3725 20.4526 26.3395 20.423 26.3168C20.2831 26.2099 20.3422 26.0481 20.3778 26.0064C20.4135 25.9646 20.6647 25.7394 20.5882 25.7064C20.4352 25.6385 20.7125 25.3403 20.8073 25.3777C20.9012 25.4159 21.0107 25.1924 21.1194 25.2272C21.2289 25.262 21.1898 25.2698 21.2167 25.3524C21.2324 25.4029 21.1985 25.4664 21.1915 25.5116C21.182 25.5629 21.095 25.5803 21.1168 25.6646C21.1385 25.7481 20.8934 26.0447 20.8673 26.0594C20.8169 26.0881 20.8116 26.276 20.9273 26.2221C21.0246 26.1777 21.0716 26.3073 21.0898 26.3351C20.9273 26.3968 20.7673 26.4586 20.6117 26.5221ZM22.4268 23.6828C22.4347 23.7245 22.4642 23.7723 22.4686 23.8036C22.472 23.8384 22.5164 23.8697 22.5268 23.8654C22.5433 23.8584 22.5581 23.8523 22.5711 23.8471C22.6277 23.8236 22.6407 23.8706 22.6998 23.8654C22.712 23.8636 22.7433 23.8776 22.7737 23.8932C22.8111 23.9123 22.7989 23.9724 22.778 23.9984C22.7563 24.0245 22.7372 24.0497 22.7181 24.0532C22.5842 24.0776 22.4503 23.9993 22.4946 24.2506C22.5033 24.3037 22.5268 24.3532 22.5546 24.3828C22.3199 24.4532 22.1252 24.5176 21.8209 24.6176C21.8461 24.275 21.8896 23.9541 21.9522 23.6645C22.1773 23.5897 22.3425 23.5358 22.4894 23.4897C22.4503 23.5515 22.4164 23.6323 22.4268 23.6828ZM32.305 26.1316C32.1754 26.1047 32.1042 26.169 32.0337 26.2316C31.8799 26.2177 31.7208 26.2055 31.5556 26.1977C31.5565 26.1934 31.5574 26.1899 31.56 26.1855C31.6191 26.0316 31.5582 25.8551 31.626 25.6916C31.6425 25.6507 31.7234 25.5742 31.7825 25.5855C31.8077 25.5898 31.8208 25.6498 31.866 25.6733C31.8825 25.682 31.8981 25.7194 31.9077 25.7568C31.912 25.7733 31.959 25.7472 31.9911 25.7612C32.039 25.782 32.1076 25.8255 32.1415 25.7994C32.2041 25.7533 32.2754 25.6951 32.3197 25.6777C32.3232 25.6759 32.3276 25.6751 32.3311 25.6742C32.3919 25.8177 32.4484 25.9629 32.5023 26.1107C32.4397 26.1151 32.3554 26.142 32.305 26.1316ZM30.5933 26.9473C30.595 26.9325 30.6376 26.9612 30.6863 26.9464C30.7072 26.9395 30.7132 26.8812 30.7141 26.8812C30.6715 26.8525 30.5429 26.8299 30.4446 26.789C30.4211 26.7786 30.4333 26.7412 30.4081 26.7334C30.3038 26.6977 30.2021 26.689 30.1682 26.6499C30.1117 26.5829 30.1264 26.4847 30.2108 26.4812C30.2786 26.4855 30.4437 26.5395 30.5611 26.5769C30.5542 26.5751 30.7471 26.5708 30.7471 26.5769C30.775 26.6082 30.7654 26.7647 30.8132 26.7751C30.8967 26.7951 30.9062 26.8708 30.9549 26.9325C30.9775 26.9621 31.0271 26.9508 31.0653 26.9882C31.1262 27.0465 31.1775 27.1552 31.2105 27.2004C31.2783 27.2926 31.3757 27.263 31.4278 27.2404C31.4435 27.3134 31.4591 27.3873 31.473 27.4621H30.5828C30.5715 27.4291 30.5576 27.3821 30.5663 27.3586C30.5724 27.3439 30.5985 27.3386 30.6046 27.3195C30.6211 27.2699 30.6637 27.2221 30.6724 27.1586C30.6776 27.1099 30.5872 26.9917 30.5933 26.9473ZM29.0015 25.0028C29.125 25.1724 29.1137 25.1689 28.952 25.2559C28.8903 25.2881 28.7251 25.3846 28.7286 25.4742C28.7312 25.5481 28.8129 25.5916 28.7077 25.6264C28.6651 25.6403 28.5104 25.7803 28.4721 25.6916C28.4443 25.629 28.5034 25.542 28.4669 25.482C28.4513 25.4542 28.3948 25.4498 28.3617 25.4664C28.3487 25.4733 28.3365 25.4568 28.3296 25.4377C28.2722 25.2916 27.9471 25.1768 27.8549 25.0942C27.821 25.0629 27.8262 25.0246 27.8366 24.9855C28.3026 24.9324 28.533 24.9141 29.0189 24.8768C29.0215 24.8846 29.0233 24.8915 29.0268 24.8985C29.0346 24.9411 28.9781 24.9689 29.0015 25.0028ZM25.3478 25.3846C25.4512 25.8151 25.5581 26.276 25.6668 26.7569C25.0878 26.8751 24.5097 27.0108 23.9438 27.1604C23.8473 26.6682 23.7639 26.2021 23.6969 25.7716C24.2446 25.6264 24.7992 25.4968 25.3478 25.3846ZM25.0635 22.314C25.0713 22.3044 25.0826 22.2531 25.087 22.2253C25.0939 22.1827 25.0183 22.1192 25.0035 22.0905C24.9966 22.0757 24.9653 22.0574 24.9288 22.0392C25.1869 21.9922 25.4425 21.9514 25.6912 21.9174C25.8207 22.0601 25.952 22.2357 26.0832 22.4401C25.7372 22.4897 25.3843 22.5488 25.0305 22.6166C25.007 22.5427 24.98 22.4296 25.0635 22.314ZM29.2971 23.2714C29.3258 23.1958 29.3623 23.1532 29.3484 23.0271C29.3467 23.0192 29.3736 22.9888 29.3962 22.9619C29.4866 23.061 29.5744 23.1645 29.6605 23.2714C29.5649 23.2706 29.4823 23.2706 29.4075 23.2706C29.3693 23.2706 29.3328 23.2706 29.2971 23.2714ZM28.3913 23.7749C28.3808 23.8141 28.2904 23.868 28.2644 23.9454C28.2035 24.1245 28.4208 24.3141 28.4052 24.3263C28.4017 24.3289 28.3991 24.3428 28.4034 24.3498C28.4208 24.3828 28.453 24.4506 28.493 24.488C28.5286 24.5219 28.5704 24.535 28.5982 24.5359C28.606 24.5359 28.619 24.5306 28.6277 24.5254C28.6321 24.5228 28.6486 24.5219 28.6616 24.5237C28.6773 24.5263 28.7025 24.5254 28.7381 24.5028C28.7677 24.4837 28.7981 24.4576 28.8268 24.4298C28.8581 24.4967 28.8877 24.5646 28.9172 24.6341C28.3669 24.675 28.1192 24.6994 27.6984 24.7498C27.6845 24.7133 27.648 24.6689 27.6158 24.635C27.5993 24.6176 27.4594 24.6976 27.4046 24.7507C27.2751 24.3698 27.1386 24.0106 26.9986 23.6793C27.4689 23.6193 27.9297 23.5741 28.3713 23.5462C28.3861 23.5715 28.4008 23.5967 28.4156 23.6219C28.353 23.7045 28.4095 23.7045 28.3913 23.7749ZM23.6482 25.382C23.7465 25.3646 23.7569 25.4281 23.8499 25.2629C23.8899 25.1924 23.8534 25.135 23.8673 25.0368C23.8769 24.9646 23.996 24.6628 23.9203 24.6037C23.8334 24.5359 24.0959 24.3837 24.162 24.3924C24.215 24.3993 24.2194 24.3593 24.2324 24.328C24.235 24.3228 24.2507 24.2298 24.2646 24.175C24.515 24.1167 24.7627 24.0619 25.0087 24.0115C25.0965 24.3524 25.1913 24.7315 25.2904 25.1411C24.5263 25.3029 24.3115 25.3559 23.6587 25.5229C23.6509 25.4768 23.6448 25.4307 23.6387 25.3846C23.6413 25.3837 23.6448 25.3829 23.6482 25.382ZM25.1513 23.0445C25.1417 23.0288 25.1791 22.9601 25.1548 22.9436C25.1365 22.9297 25.0948 22.8871 25.0687 22.8471C25.4538 22.774 25.8389 22.7097 26.2162 22.6566C26.3597 22.9027 26.4996 23.1801 26.637 23.4828C26.1562 23.5506 25.6746 23.6323 25.2009 23.7254C25.16 23.5715 25.1191 23.421 25.0774 23.274C25.1417 23.201 25.1982 23.1219 25.1513 23.0445ZM28.2304 23.3149C27.655 23.3584 27.4507 23.3819 26.8986 23.4488C26.7604 23.1436 26.6205 22.8671 26.4805 22.6227C26.8865 22.5723 27.2733 22.5349 27.6341 22.5123C27.8393 22.7436 28.0392 23.0132 28.2304 23.3149ZM27.7367 22.2731C27.5611 22.087 27.3803 21.9218 27.1977 21.7818C27.4281 21.7731 27.6506 21.7722 27.8601 21.7783C28.1218 21.9061 28.3774 22.0644 28.6234 22.2496C28.3409 22.2479 28.0435 22.2557 27.7367 22.2731ZM27.4307 22.2931C27.076 22.3201 26.7135 22.3575 26.3484 22.4044C26.224 22.2062 26.098 22.0314 25.9728 21.8818C26.3362 21.8383 26.4753 21.827 26.8361 21.8C27.0369 21.9331 27.2359 22.0983 27.4307 22.2931ZM24.9479 23.7758C24.7758 23.8115 24.6036 23.8489 24.4332 23.888C24.4341 23.8845 24.4359 23.8819 24.4367 23.8793C24.561 23.5541 24.7566 23.5341 24.8653 23.4671C24.8922 23.5662 24.9192 23.6689 24.9479 23.7758ZM25.7207 23.8767C25.6729 23.9289 25.5999 23.9976 25.5616 24.0202C25.5425 24.0315 25.4547 24.2045 25.4912 24.2576C25.5277 24.3089 25.5547 24.3759 25.6094 24.4072C25.5842 24.4393 25.7833 24.2985 25.772 24.3585C25.7477 24.4785 25.9363 24.3124 25.9467 24.3063C26.058 24.2063 26.1806 24.0576 26.2892 23.9637C26.3266 23.9323 26.2371 23.8558 26.1432 23.8045C26.3162 23.7776 26.4927 23.7506 26.7378 23.7149C26.8813 24.055 27.0212 24.4246 27.1534 24.8185C26.6283 24.8915 26.0893 24.982 25.5486 25.0881C25.4521 24.695 25.3573 24.3167 25.2634 23.9619C25.4443 23.9271 25.5912 23.9002 25.7207 23.8767ZM29.5709 24.3263C29.6266 24.2611 29.5249 24.1898 29.5092 24.1489C29.4953 24.1106 29.6596 23.921 29.5935 23.8619C29.5727 23.8428 29.371 23.7436 29.3701 23.7297C29.3701 23.728 29.351 23.5706 29.3328 23.5106C29.484 23.5088 29.604 23.5106 29.7579 23.5132C29.7561 23.5419 29.7509 23.5775 29.7422 23.6184C29.717 23.7297 29.9256 23.7402 29.9361 23.7384C29.9482 23.7349 29.9726 23.7323 29.9987 23.7306C30.0534 23.8115 30.1073 23.8941 30.1603 23.9793C30.0786 24.0054 30.0186 24.2428 30.0195 24.3063C30.0239 24.5793 30.1117 24.4019 30.1212 24.4933C30.1238 24.5228 30.0995 24.5576 30.0769 24.588C29.8543 24.5898 29.6266 24.5959 29.3953 24.6063C29.4188 24.4611 29.6205 24.5341 29.6353 24.4019C29.637 24.3863 29.5292 24.3767 29.5709 24.3263ZM30.6002 23.5602C30.6072 23.5636 30.6141 23.5654 30.6202 23.5697C30.6324 23.5767 30.7567 23.8471 30.7419 23.901C30.7245 23.9602 30.5246 23.9254 30.4194 23.941C30.3542 23.8358 30.289 23.7341 30.2212 23.6341C30.2299 23.6271 30.2395 23.6202 30.2516 23.6106C30.2986 23.5784 30.3612 23.5541 30.4246 23.5445C30.4846 23.5488 30.5429 23.5541 30.6002 23.5602ZM29.857 23.141C29.7587 23.0192 29.6579 22.9027 29.5536 22.7905C29.644 22.7062 29.8457 22.6149 29.9056 22.6958C29.9708 22.7836 29.8526 23.0462 29.857 23.141ZM28.752 22.5949C28.7616 22.6088 28.7555 22.6931 28.7677 22.7227C28.8285 22.8618 28.7355 22.774 28.7008 22.9558C28.6669 23.1358 28.7886 23.0375 28.6364 23.1923C28.6147 23.214 28.5956 23.2506 28.5773 23.2932C28.5556 23.294 28.533 23.2949 28.5095 23.2967C28.3269 23.0027 28.1357 22.7349 27.9349 22.4966C28.3287 22.4801 28.4834 22.4792 28.7999 22.4836C28.8268 22.5331 28.7642 22.5549 28.752 22.5949ZM26.8969 21.5739C26.8021 21.5174 26.7057 21.4652 26.61 21.42C26.6509 21.42 26.6917 21.4209 26.7291 21.4218C26.9247 21.4513 27.1203 21.4965 27.3133 21.5583C27.1899 21.5609 27.0664 21.567 26.8969 21.5739ZM25.7833 21.68C25.679 21.5852 25.6103 21.5235 25.5434 21.4748C25.7007 21.4583 25.8528 21.4444 25.9998 21.4357C26.1623 21.4705 26.3258 21.527 26.4875 21.6035C26.2606 21.6226 26.025 21.6479 25.7833 21.68ZM27.2333 25.0602C27.2698 25.1733 27.3055 25.289 27.3411 25.4055C27.3168 25.4159 27.2872 25.429 27.2768 25.4307C27.2273 25.4377 27.2516 25.6046 27.249 25.6098C27.2325 25.6498 27.2481 25.7038 27.262 25.7472C27.2768 25.7968 27.3359 25.7568 27.3498 25.7803C27.3924 25.8499 27.2403 26.036 27.3733 26.0438C27.4011 26.0455 27.4541 26.0238 27.5098 25.9899C27.548 26.1316 27.5863 26.2742 27.6245 26.4195C27.0586 26.4977 26.4901 26.5934 25.9285 26.7047C25.8059 26.1664 25.7033 25.7255 25.6077 25.3333C26.1458 25.2272 26.6917 25.135 27.2333 25.0602ZM27.8862 26.3838C27.8236 26.1421 27.7601 25.9073 27.6941 25.6794C27.941 25.5933 27.8506 25.882 27.9566 25.7942C27.9749 25.7794 28.094 25.8577 27.961 25.9142C27.8758 25.9507 27.9853 26.0177 28.0149 26.0386C28.1009 26.0968 28.2078 25.7038 28.4252 25.8864C28.4452 25.9029 28.426 25.9273 28.4069 25.9507C28.3869 25.9751 28.3974 25.9907 28.3591 26.0133C28.3139 26.0403 28.3026 26.0542 28.2635 26.0638C28.2435 26.0681 28.2774 26.1673 28.28 26.1734C28.2956 26.2238 28.1713 26.3064 28.0983 26.3586C28.027 26.3664 27.9566 26.3751 27.8862 26.3838ZM29.9795 27.1656C29.9491 27.0256 29.9161 26.8873 29.883 26.7508C29.9482 26.8221 30.016 26.8864 30.1212 26.8951C30.1664 26.8995 30.2073 26.9047 30.2464 26.9125C30.2925 26.9212 30.3325 26.9725 30.3812 26.9925C30.4333 27.0151 30.4924 27.0978 30.5124 27.143C30.5211 27.1621 30.5368 27.276 30.4872 27.303C30.4359 27.3308 30.3507 27.3326 30.2899 27.3326C30.2542 27.3326 30.2038 27.3656 30.2073 27.4265C30.2073 27.4421 30.2064 27.4534 30.2047 27.4621H30.0421C30.0221 27.363 30.0013 27.2639 29.9795 27.1656ZM32.6118 25.7359C32.7788 25.7646 33.1508 25.7412 33.2725 26.0264C33.3786 26.2751 32.9457 26.1351 32.7588 26.1255C32.7118 25.9933 32.6631 25.8638 32.6118 25.7359ZM29.1224 22.0905C29.1102 22.0983 28.9937 22.0488 28.9598 22.0766C28.9633 22.0931 28.9398 22.1522 28.9459 22.1583C28.9546 22.167 28.9355 22.1662 28.9033 22.1896C28.6703 22.0122 28.5347 21.9122 28.3661 21.8105C28.4921 21.8227 28.6121 21.8383 28.7225 21.8574C28.8538 21.9122 28.9824 21.9722 29.1102 22.0374C29.1276 22.0609 29.1354 22.0809 29.1224 22.0905ZM25.1861 21.5183C25.286 21.5626 25.3869 21.6305 25.4912 21.72C25.3087 21.747 25.1244 21.7774 24.9401 21.8105C24.9314 21.8079 24.9244 21.8035 24.9201 21.794C24.9218 21.7913 24.8949 21.7696 24.8644 21.7679C24.8123 21.7653 24.7392 21.7827 24.7036 21.7748C24.6645 21.7661 24.6758 21.7513 24.6853 21.7296C24.7036 21.687 24.814 21.7279 24.8288 21.6096C24.8297 21.5974 24.8314 21.5852 24.8349 21.5722C24.9522 21.5522 25.0696 21.5348 25.1861 21.5183ZM23.4022 25.5916C22.645 25.8046 22.4338 25.8725 21.8201 26.0751C21.8166 26.0186 21.8131 25.962 21.8105 25.9064C21.9765 25.8707 21.9426 25.7081 21.9426 25.7003C21.9418 25.6533 21.9957 25.5072 21.9957 25.5072C22.1182 25.4881 22.0539 25.229 22.1217 25.1785C22.1895 25.1289 22.1113 24.9968 22.0565 25.0159C22.013 25.0315 21.9731 25.0663 21.9548 25.1046C21.9365 25.1429 21.8653 25.1272 21.8696 25.1029C21.8731 25.082 21.8444 25.015 21.8018 24.9976C21.8035 24.9576 21.8044 24.9168 21.8061 24.8768C22.2573 24.7272 22.4999 24.6507 22.7824 24.568C22.7441 24.655 22.7372 24.7715 22.7546 24.8307C22.7685 24.875 22.8189 24.8585 22.8441 24.8994C22.8641 24.9315 22.8424 25.0237 22.8615 25.0481C22.8937 25.0907 22.9545 25.1637 22.9589 25.1689C23.0136 25.2307 23.051 25.3463 23.1014 25.3542C23.1301 25.3585 23.1762 25.3672 23.1945 25.3959C23.2075 25.4159 23.2831 25.4168 23.2962 25.4324C23.3301 25.4733 23.3588 25.4855 23.3866 25.4829C23.3918 25.5185 23.397 25.5551 23.4022 25.5916ZM22.6694 23.1897C22.6694 23.1897 22.6694 23.1906 22.6685 23.1906C22.4451 23.2567 22.2764 23.3114 22.0148 23.3984C22.0356 23.3227 22.0574 23.2506 22.08 23.1801C22.4503 22.9714 22.6242 23.1923 22.6694 23.1897ZM21.3193 23.2358C21.4036 23.2332 21.4975 23.361 21.5419 23.3636C21.594 23.3654 21.7096 23.2601 21.8105 23.2453C21.7861 23.3254 21.7627 23.4062 21.7418 23.4906L21.6957 23.5062C21.6384 23.5271 21.581 23.5471 21.5227 23.568C21.2437 23.6706 20.9916 23.7706 20.7577 23.8697C20.8847 23.601 21.0307 23.3575 21.1924 23.141C21.2089 23.134 21.2263 23.1271 21.2428 23.1193C21.2576 23.1766 21.275 23.2375 21.3193 23.2358ZM20.3535 23.568C20.49 23.4871 20.6378 23.4071 20.7977 23.328C20.7073 23.4688 20.6247 23.6202 20.5491 23.7776C20.5152 23.7402 20.4535 23.7054 20.423 23.701C20.4117 23.7002 20.3439 23.6741 20.2866 23.6462C20.3092 23.6202 20.3309 23.5932 20.3535 23.568ZM20.084 23.9367C20.1023 23.9202 20.3952 23.8923 20.4144 23.9263C20.4213 23.9402 20.443 23.9515 20.4656 23.9576C20.4587 23.9741 20.4509 23.9906 20.443 24.0071C20.2118 24.1124 19.9919 24.2193 19.7893 24.328C19.8676 24.2019 19.9501 24.0802 20.0362 23.9619C20.0571 23.9532 20.0745 23.9445 20.084 23.9367ZM18.8304 25.2298C19.013 25.0802 19.0834 25.0255 19.2216 24.9333C19.0791 25.2481 18.96 25.5803 18.8652 25.9255C18.7818 25.9777 18.7131 26.0212 18.6548 26.0586C18.6653 26.0212 18.6722 25.9699 18.6488 25.9333C18.634 25.9107 18.5862 25.8368 18.5592 25.7507C18.6218 25.6194 18.7061 25.4542 18.8304 25.2298ZM19.9128 27.0952C19.9145 27.216 19.9188 27.3386 19.9258 27.4621H19.5059C19.485 27.4273 19.472 27.3665 19.4651 27.3099C19.6085 27.2378 19.7571 27.1665 19.9128 27.0952ZM24.0047 27.4621C24.0012 27.4465 23.9977 27.43 23.9942 27.4143C24.5628 27.2647 25.1426 27.1282 25.7242 27.0091C25.7564 27.1578 25.7903 27.3091 25.8242 27.4621H24.0047ZM26.0971 27.4621C26.0684 27.3326 26.0398 27.2039 26.0119 27.0786L25.985 26.9578C26.7882 26.8056 27.023 26.7699 27.6871 26.6725C27.7419 26.896 27.7967 27.1352 27.8549 27.3995C27.8592 27.4195 27.8645 27.4413 27.8688 27.4621H26.0971ZM28.9137 27.4091C28.9737 27.3604 28.9598 27.2952 29.0068 27.2239C29.0433 27.1691 29.1415 27.1152 29.1406 27.076C29.1406 27.0508 29.0867 26.9856 29.085 26.9325C29.0833 26.8882 29.1293 26.8525 29.1563 26.8351C29.231 26.7882 29.3423 26.8569 29.3858 26.816C29.4588 26.7499 29.4988 26.6169 29.5718 26.5708C29.6266 26.7795 29.6779 26.9943 29.7257 27.2126C29.7439 27.296 29.7605 27.3786 29.7778 27.4621H28.879C28.8824 27.4439 28.8929 27.4256 28.9137 27.4091ZM25.3834 37.9445C21.1533 36.0322 18.6661 33.1442 17.4873 28.7544H25.3834V37.9445ZM26.6744 37.9376V28.7544H34.4983C33.4429 32.2737 31.1966 35.8061 26.6744 37.9376ZM34.8347 27.4621H34.8086C33.6629 23.6836 30.149 20.9252 26.0024 20.9252C21.8557 20.9252 18.341 23.6836 17.1944 27.4621H17.1805C17.1779 27.4491 17.1753 27.4378 17.1726 27.4247C16.5415 24.2341 16.6719 21.3035 16.8162 19.779H35.2033C35.3998 21.5939 35.5067 24.4576 34.8347 27.4621ZM41.8532 21.4992C41.781 21.5045 41.7063 21.5158 41.6263 21.5332C41.5481 21.5505 41.4629 21.5714 41.3733 21.5932C41.282 21.6149 41.1986 21.6375 41.1204 21.6593C41.0421 21.6801 40.97 21.7053 40.9039 21.734C40.8378 21.7636 40.7796 21.7993 40.7265 21.8427C40.6735 21.8862 40.6274 21.941 40.5866 22.0071C40.5301 22.1001 40.4944 22.1984 40.4788 22.301C40.4623 22.4045 40.4692 22.5141 40.4979 22.6297C40.5214 22.7263 40.5579 22.8141 40.6066 22.8941C40.6553 22.9741 40.7161 23.0411 40.7891 23.095C40.8613 23.1489 40.9447 23.1889 41.0386 23.2141C41.1334 23.2402 41.2368 23.248 41.3507 23.2385L41.249 22.8228C41.1586 22.8219 41.0786 22.8011 41.0082 22.7602C40.9369 22.7193 40.8891 22.6471 40.863 22.5428C40.8491 22.4863 40.8465 22.4323 40.8552 22.3836C40.8639 22.3341 40.8813 22.2906 40.9074 22.2532C40.9248 22.228 40.9439 22.2054 40.9674 22.1854C40.9908 22.1645 41.023 22.1454 41.0638 22.1271C41.1047 22.108 41.1586 22.0888 41.2247 22.0697C41.2916 22.0497 41.3733 22.028 41.4742 22.0028C41.5741 21.9784 41.6585 21.9593 41.7263 21.9454C41.7932 21.9314 41.8497 21.9236 41.8949 21.9201C41.9401 21.9175 41.9775 21.9201 42.0079 21.9271C42.0366 21.9341 42.0662 21.9454 42.0923 21.9593C42.1322 21.9801 42.1688 22.0106 42.1983 22.0506C42.2296 22.0897 42.2522 22.1384 42.2661 22.1949C42.2913 22.2993 42.2835 22.3863 42.2392 22.455C42.1966 22.5245 42.1357 22.5802 42.0557 22.6228L42.1592 23.0393C42.2644 22.9941 42.3531 22.9376 42.4235 22.8706C42.4956 22.8045 42.5495 22.7306 42.5895 22.6489C42.6286 22.5671 42.6512 22.4802 42.6573 22.3871C42.6643 22.2949 42.6547 22.1993 42.6304 22.1019C42.6026 21.9854 42.5565 21.8854 42.4939 21.8019C42.4322 21.7184 42.3539 21.6488 42.2609 21.5923C42.1948 21.5523 42.1279 21.5253 42.061 21.5114C41.994 21.4984 41.9245 21.494 41.8532 21.4992ZM38.9519 36.7613C38.925 36.6987 38.8893 36.6387 38.845 36.5822C38.7998 36.5265 38.7485 36.4709 38.6885 36.4161C38.6303 36.3604 38.5659 36.3022 38.4955 36.2404C38.426 36.1787 38.3599 36.1213 38.2982 36.0691C38.2365 36.0169 38.1756 35.9717 38.1139 35.9334C38.053 35.896 37.9904 35.8673 37.9244 35.8473C37.8592 35.8291 37.7879 35.8221 37.7105 35.8265C37.6019 35.8326 37.501 35.8587 37.4063 35.903C37.3124 35.9491 37.2254 36.0161 37.1472 36.1048C37.0803 36.1787 37.029 36.2587 36.9907 36.3439C36.9533 36.4291 36.9325 36.5178 36.929 36.6074C36.9255 36.6987 36.9403 36.79 36.9725 36.8813C37.0038 36.9735 37.0559 37.0639 37.1289 37.1535L37.4132 36.8335C37.3628 36.7587 37.3341 36.6804 37.328 36.5987C37.3219 36.5178 37.3541 36.4369 37.4254 36.3569C37.4645 36.3135 37.5071 36.2813 37.5523 36.2604C37.5984 36.2395 37.6436 36.2291 37.6888 36.23C37.7192 36.2291 37.7488 36.2326 37.7792 36.2404C37.8087 36.2482 37.8427 36.2639 37.8809 36.2874C37.92 36.3109 37.9661 36.3439 38.02 36.3874C38.073 36.4309 38.1382 36.4874 38.2156 36.5561C38.2921 36.6239 38.3556 36.6822 38.4051 36.73C38.4555 36.7787 38.4929 36.8196 38.5216 36.8561C38.5494 36.8918 38.5685 36.9239 38.5798 36.9518C38.5911 36.9813 38.5972 37.01 38.6007 37.0405C38.6059 37.0857 38.6016 37.1326 38.5859 37.1796C38.5711 37.2274 38.5451 37.2727 38.5059 37.317C38.4347 37.397 38.3573 37.4387 38.2764 37.4422C38.1947 37.4448 38.1147 37.4266 38.0348 37.3857L37.7505 37.7057C37.847 37.7666 37.9426 37.8083 38.0382 37.8292C38.1339 37.8501 38.2252 37.8536 38.3147 37.8396C38.4051 37.8257 38.4886 37.7953 38.5685 37.7483C38.6476 37.7014 38.7215 37.6396 38.7893 37.564C38.8685 37.4753 38.9241 37.3814 38.958 37.2831C38.9919 37.184 39.0049 37.0805 38.9989 36.9718C38.9945 36.8944 38.9789 36.8239 38.9519 36.7613Z" fill="white"/>
<path fill-rule="evenodd" clip-rule="evenodd" d="M39.3468 18.6333L38.8094 17.7872L39.2531 17.5051L39.7101 18.2253L40.028 18.0238L39.571 17.3026L39.9987 17.0319L40.536 17.878L40.8539 17.6755L40.0895 16.4735L38.2654 17.6329L39.0289 18.8348L39.3468 18.6333Z" fill="white"/>
<path fill-rule="evenodd" clip-rule="evenodd" d="M32.5281 41.2823L33.5291 41.5643L33.8119 40.562L32.811 40.2791L32.5281 41.2823Z" fill="white"/>
<path fill-rule="evenodd" clip-rule="evenodd" d="M31.4817 9.99807L31.0796 9.86841L30.4164 11.9269L30.8185 12.0556L31.4817 9.99807Z" fill="white"/>
<path fill-rule="evenodd" clip-rule="evenodd" d="M14.8558 15.5668L14.836 14.5258L13.7943 14.5466L13.8161 15.5876L14.8558 15.5668Z" fill="white"/>
<path fill-rule="evenodd" clip-rule="evenodd" d="M17.2892 14.1036L15.9968 12.3688L15.6591 12.6215L16.9514 14.3553L17.2892 14.1036Z" fill="white"/>
<path fill-rule="evenodd" clip-rule="evenodd" d="M18.5598 13.2726L17.9249 12.1057L19.3119 12.8628L19.6421 12.683L18.6099 10.7826L18.2391 10.9842L18.872 12.1483L17.4869 11.394L17.1558 11.5738L18.188 13.4733L18.5598 13.2726Z" fill="white"/>
<path fill-rule="evenodd" clip-rule="evenodd" d="M13.6485 17.8449L13.3259 17.6499L12.8084 18.5074L12.359 18.2367L12.7999 17.507L12.4782 17.3121L12.0373 18.0427L11.6021 17.7805L12.1196 16.9221L11.797 16.7272L11.0619 17.9471L12.9125 19.0639L13.6485 17.8449Z" fill="white"/>
<mask id="mask1_95_561" style="mask-type:luminance" maskUnits="userSpaceOnUse" x="0" y="0" width="53" height="53">
<path d="M0 52.2182V26.1791V0.140015H52.0776V52.2182H0Z" fill="white"/>
</mask>
<g mask="url(#mask1_95_561)">
<path fill-rule="evenodd" clip-rule="evenodd" d="M48.5535 28.0268C49.6375 27.6755 52.0777 26.9076 52.0777 26.9076L48.6256 25.5467C48.6256 25.5467 50.9485 24.5014 52.0021 24.0257L48.4292 23.0674C49.4002 22.4474 51.6187 21.2108 51.6187 21.2108L47.9545 20.6081L50.8789 18.3897L47.2104 18.2314L49.9044 15.7L46.2202 15.9487C46.9626 15.0913 47.8528 14.0034 48.617 13.1563L44.9806 13.7886L47.0383 10.7301L43.5123 11.785C44.0182 10.7614 45.2109 8.50302 45.2109 8.50302L41.9649 9.7744L43.1472 6.51246L39.9507 8.29257C40.2393 7.18728 40.647 5.86112 40.9243 4.74452L37.9034 6.88814C37.9034 6.88814 38.2903 4.3358 38.465 3.24008L35.704 5.68806L35.89 1.99914L35.704 2.21654C34.9416 3.05399 34.1966 3.98361 33.402 4.73757L33.1847 1.09734L31.0253 4.07753C30.8297 2.9505 30.5759 1.61911 30.422 0.472087L28.5669 3.65228L27.5358 0.147719L26.0893 3.49836L24.6766 0.139893L23.61 3.65228L21.8296 0.445129L21.1628 4.04535L19.0434 1.0556L18.7557 4.71757L16.325 1.97827L16.452 5.65762L13.7075 3.22095L14.2421 6.84639L11.2838 4.688L12.1871 8.26126C12.1871 8.26126 10.0094 7.00727 9.0175 6.43941L10.3258 9.89093L6.94329 8.45693L8.61239 11.7128L5.10989 10.651L7.15715 13.6964L3.53641 13.0303L5.88619 15.8765L2.24373 15.58L4.87343 18.1601L1.21271 18.2541L4.13016 20.5359L0.495515 21.0429L3.65551 22.9639C2.56972 23.2944 1.17359 23.5839 0.0895404 23.904L3.41384 25.4215C2.34804 25.8658 0 26.7841 0 26.7841C0 26.7841 2.47844 27.5303 3.51033 27.9538L0.222547 29.6374C0.222547 29.6374 2.73576 30.1652 3.85111 30.4035C2.9105 31.0331 0.756312 32.4488 0.756312 32.4488L4.45094 32.8097C3.60335 33.5541 1.60216 35.1995 1.60216 35.1995L5.31853 35.1664L2.7488 37.8396L6.433 37.377C5.74102 38.2866 4.16841 40.3172 4.16841 40.3172L7.79697 39.4841L5.86533 42.6434L9.39044 41.4172L7.81001 44.7487C7.81001 44.7487 10.1424 43.5669 11.1639 43.153L9.9781 46.6758L13.0868 44.6983L12.3366 48.3246L15.2114 46.0532L14.855 49.7003L17.5099 47.035L17.4838 50.7778C17.4838 50.7778 19.1173 48.7012 19.8397 47.8863C19.9962 49.0203 20.2918 51.5813 20.2918 51.5813L22.2617 48.4159L23.0571 52.0483L23.2179 51.7605L24.7575 48.6594L25.9858 52.2179L27.2707 48.7794L28.8703 52.0666L29.7352 48.4324C29.7352 48.4324 31.1157 50.6213 31.6947 51.6022L32.1624 47.8863C32.1624 47.8863 33.7341 49.936 34.467 50.8248L34.5669 47.2037L37.1106 49.7256L36.8124 46.1062L39.6368 48.3916C39.4108 47.3472 38.8797 44.7235 38.8797 44.7235C39.829 45.374 41.0538 46.1245 42.0144 46.7445L40.8687 43.2043L44.1956 44.8444C44.1956 44.8444 43.0785 42.4912 42.6447 41.4685C43.6679 41.8407 45.1092 42.346 46.122 42.759C46.2454 42.8521 44.3008 39.558 44.3008 39.558L47.838 40.4328L45.6569 37.4657L49.2768 37.9474L46.714 35.2386L50.433 35.3238L47.6033 32.9123L51.2919 32.5775L48.2232 30.4852L51.8404 29.7748L48.5535 28.0268ZM51.1258 26.7659L46.2915 26.5902L48.4718 25.7223C49.3576 26.0632 50.2374 26.4137 51.1258 26.7659ZM45.4031 31.374L47.1921 32.7506L44.9075 32.9123C44.9075 32.9123 45.2588 31.8906 45.4031 31.374ZM44.5363 18.3558L46.8062 18.3897C46.2367 18.9063 45.7038 19.4307 45.0832 19.8959L44.5363 18.3558ZM45.2561 20.3907L47.5025 20.7273C46.8522 21.1708 46.3228 21.6212 45.6508 22.0239L45.2561 20.3907ZM45.869 29.1939L47.8511 30.4339L45.5482 30.8061L45.869 29.1939ZM45.7743 22.5926L47.9415 23.1544L46.0229 24.2031L45.7743 22.5926ZM46.0742 27.0137L48.2032 28.0051C47.4703 28.2434 46.694 28.419 45.9507 28.6251L46.0742 27.0137ZM46.0438 24.7832L48.2544 25.5467C47.5616 25.8467 46.8183 26.1458 46.095 26.4346L46.0438 24.7832ZM51.0328 23.9866L46.2202 24.3579L48.2753 23.2631L51.0328 23.9866ZM50.6199 21.276L45.8994 22.1473L47.7989 20.8046L50.6199 21.276ZM49.9583 18.5845L45.3735 19.9889L47.1382 18.4584L49.9583 18.5845ZM48.9986 15.9791L44.5572 17.9114L46.1463 16.1548C46.1463 16.1548 48.0562 16.0417 48.9986 15.9791ZM44.3095 17.8392L43.5453 16.3722C44.3199 16.2887 45.8116 16.1548 45.8116 16.1548C45.8116 16.1548 44.8154 17.2505 44.3095 17.8392ZM47.6772 13.5459L43.4427 15.987L44.798 14.0503C45.7378 13.8851 46.7479 13.7225 47.6772 13.5459ZM43.2454 15.8765L42.3257 14.4364L44.4885 14.1077L43.2454 15.8765ZM46.2202 11.2162L42.3257 14.0373L43.5123 12.0119C44.4225 11.7432 45.3309 11.4954 46.2202 11.2162ZM42.057 14.0373H42.0049L40.993 12.7763L43.2237 12.0119L42.057 14.0373ZM44.432 9.07697L40.9104 12.332L41.8858 10.0849L44.432 9.07697ZM40.6218 12.3841L39.4221 11.2371C40.1158 10.8753 40.8478 10.5344 41.5815 10.2249L40.6218 12.3841ZM40.0028 8.56128L42.4795 7.14554L39.2778 10.7919L40.0028 8.56128ZM39.0309 10.844L37.7182 9.85267L39.702 8.61346C39.5377 9.32568 39.2369 10.0901 39.0309 10.844ZM37.9886 7.09337L40.2697 5.46109L37.5226 9.42829L37.9886 7.09337ZM37.2749 9.50047C36.8098 9.26393 36.3447 8.91174 35.8596 8.6639L37.7182 7.19685C37.5626 7.96125 37.4201 8.73608 37.2749 9.50047ZM35.8075 5.93764L37.9156 4.02535L35.611 8.26126L35.8075 5.93764ZM33.5577 4.94454L35.4371 2.83658L33.5976 7.3012C33.5872 6.58812 33.5359 5.74024 33.5577 4.94454ZM35.5606 6.02982L35.3641 8.38562L33.8776 7.69253L35.5606 6.02982ZM33.309 5.08976L33.3499 7.46556L31.8216 6.94901V6.87683L33.309 5.08976ZM32.8135 1.9687L31.4704 6.59855L31.1705 4.24275L32.8135 1.9687ZM30.9532 4.41755L31.2748 6.77335L29.6309 6.43159L30.9532 4.41755ZM30.1117 1.45737L29.2901 6.102L28.7433 3.87056L30.1117 1.45737ZM28.5164 4.02535L29.1163 6.32897L27.4524 6.15244L28.5164 4.02535ZM27.3802 1.04951L27.0803 5.8846L26.2371 3.73142L27.3802 1.04951ZM26.0841 3.99578C26.0841 3.99578 26.6578 5.36804 26.9065 6.13331L25.2521 6.102L26.0841 3.99578ZM24.6019 1.07038L24.8496 5.8846L23.8064 3.79751L24.6019 1.07038ZM23.6413 4.02535L24.7053 6.15244L23.0423 6.32897L23.6413 4.02535ZM21.8539 1.36953C21.8539 1.36953 22.3703 4.5419 22.6181 6.13331L21.3584 4.16971L21.8539 1.36953ZM21.2341 4.39668L22.5251 6.40115L20.9142 6.77335L21.2341 4.39668ZM19.1477 1.98957L20.4387 6.59855L18.9626 4.86801L19.1477 1.98957ZM18.9121 5.19064L20.3674 6.89683C19.8701 7.09337 19.3146 7.25859 18.807 7.46556L18.9121 5.19064ZM18.3314 7.34208L16.6528 5.79676L16.5458 2.87919L18.3314 7.34208ZM18.3114 7.67166L16.7927 8.36475L16.6397 6.10026L18.3114 7.67166ZM6.04093 26.3424C5.30722 26.0945 4.56395 25.7536 3.83111 25.4745C4.55352 25.1858 5.32809 24.9492 6.08266 24.7005C5.98964 25.2162 6.05224 25.8258 6.04093 26.3424ZM6.16525 28.5738L3.88153 27.9033C3.88153 27.9033 5.31853 27.232 6.04093 26.9111L6.16525 28.5738ZM4.02758 23.0161L6.33042 22.4987L6.13395 24.1309L4.02758 23.0161ZM6.2374 29.0904L6.55731 30.734L4.22231 30.3296L6.2374 29.0904ZM4.50223 20.6081C5.27767 20.4933 6.08266 20.442 6.87722 20.3603L6.45473 21.9717L4.50223 20.6081ZM6.65989 31.2714C6.83637 31.7679 6.99111 32.3254 7.17801 32.841L4.82214 32.7176L6.65989 31.2714ZM6.9885 19.9002L5.40111 18.3828L7.6205 18.2836L6.9885 19.9002ZM14.4908 7.23164L16.3746 8.61346L14.8828 9.50047L14.4908 7.23164ZM14.5038 9.76223L13.1468 10.8136L12.5018 8.6639L14.5038 9.76223ZM14.0448 4.07753L16.3285 8.31257L14.4638 6.93336L14.0448 4.07753ZM11.7107 5.53327L14.4377 9.50047L12.4505 8.36736L11.7107 5.53327ZM9.53214 7.21859L12.6826 10.8962L10.5918 9.95615L9.53214 7.21859ZM12.773 11.1441L11.5359 12.332L10.6553 10.2527L12.773 11.1441ZM7.54921 9.15958C8.71671 10.2866 9.92507 11.331 11.0926 12.4563L8.91318 11.7771L7.54921 9.15958ZM11.1639 12.725C10.8135 13.1581 10.4519 13.592 10.0998 14.0173L9.0288 12.0876L11.1639 12.725ZM5.79405 11.2875C7.08499 12.2598 8.39593 13.1998 9.67645 14.1912L7.41447 13.7007L5.79405 11.2875ZM9.77903 14.4399L8.89145 15.8252L8.86798 15.8704L7.53096 13.959L9.77903 14.4399ZM4.30576 13.6233L8.46896 16.0513L6.20089 15.8835L4.30576 13.6233ZM8.5924 16.2992L7.84913 17.7871L6.34259 16.1348L8.5924 16.2992ZM3.09566 16.0974C4.57265 16.7383 5.96878 17.4053 7.44489 18.0349L5.169 18.1314L3.09566 16.0974ZM2.07508 18.6758L6.68076 20.1437L4.34749 20.3907L2.07508 18.6758ZM1.40396 21.3516L6.13395 22.303L3.81112 22.7987L1.40396 21.3516ZM1.03102 24.1118L5.83403 24.5336L3.60335 25.278L1.03102 24.1118ZM0.958865 26.8589L5.79405 26.7659L3.68593 27.7277L0.958865 26.8589ZM1.20662 29.6174L5.95835 28.9669L4.00672 30.1861L1.20662 29.6174ZM1.74386 32.3462L6.413 31.1775L4.57438 32.5923L1.74386 32.3462ZM2.56972 34.9699L7.07369 33.3063L5.42111 34.9177L2.56972 34.9699ZM7.35187 33.3585L8.02386 34.8977L5.66886 34.9907L7.35187 33.3585ZM3.68593 37.5022L7.97257 35.3412L6.50602 37.1291L3.68593 37.5022ZM8.24119 35.3942C8.53068 35.8378 8.80886 36.3334 9.08791 36.8082L6.75465 37.2004L8.24119 35.3942ZM5.09163 39.8771L9.08791 37.2735L7.81783 39.238L5.09163 39.8771ZM9.38696 37.3048L10.3789 38.6171L8.13687 39.2093L9.38696 37.3048ZM6.70336 42.1103L10.4519 39.0614L9.41565 41.1459L6.70336 42.1103ZM10.7205 39.0614L11.8358 40.2493L9.726 41.0816L10.7205 39.0614ZM11.15 42.8556L8.5924 44.0774L11.9593 40.6928L11.15 42.8556ZM12.2383 40.6728L13.478 41.7372L11.4429 42.7608L12.2383 40.6728ZM13.0546 44.4444L10.6675 45.9523L13.6423 42.1608L13.0546 44.4444ZM13.9214 42.0886L15.2549 43.0286L13.3528 44.3096L13.9214 42.0886ZM15.1993 45.7705L12.9295 47.5446L15.4818 43.4217L15.1993 45.7705ZM15.7287 43.3495L17.1648 44.1235L15.4096 45.6531L15.7287 43.3495ZM15.3792 48.8351L17.4447 44.4965L17.4769 46.7463L15.3792 48.8351ZM17.8603 49.8899L19.5198 45.3114C19.6137 46.0975 19.7832 47.5776 19.7832 47.5776L17.8603 49.8899ZM17.6916 46.601L17.7125 44.3713L19.199 44.9922L17.6916 46.601ZM19.9988 47.3489L19.7458 45.1896L21.3063 45.6331L19.9988 47.3489ZM20.5708 50.6517L21.6792 45.901L22.1478 48.1203L20.5708 50.6517ZM22.3269 47.875L21.8748 45.7566L23.4648 46.0245L22.3269 47.875ZM23.3101 51.0883L23.8899 46.2732L24.5497 48.5055L23.3101 51.0883ZM24.7549 48.3011L24.0533 46.1071L25.7172 46.2001L24.7549 48.3011ZM26.1197 51.2317L26.1406 46.3975L27.0777 48.6107L26.1197 51.2317ZM27.2359 48.3394C27.2359 48.3394 26.6465 46.8941 26.2849 46.2001C26.8326 46.1697 27.927 46.1071 27.927 46.1071L27.2359 48.3394ZM28.8676 51.0674L28.3504 46.2732L29.5075 48.2872L28.8676 51.0674ZM29.6631 48.0611L28.4947 46.0566L30.1064 45.7775L29.6631 48.0611ZM31.5938 50.6134L30.5515 45.8801L31.9451 47.7924L31.5938 50.6134ZM32.0694 47.5446L30.675 45.6531L32.2345 45.2088L32.0694 47.5446ZM34.2479 49.8282L32.7092 45.2618L34.32 47.0228L34.2479 49.8282ZM32.8135 45.0331L34.3001 44.4139L34.334 46.6741L32.8135 45.0331ZM26.0389 44.9453C15.6783 44.9453 7.27885 36.5439 7.27885 26.1789C7.27885 15.8148 15.6783 7.41252 26.0389 7.41252C36.4003 7.41252 44.7998 15.8148 44.7998 26.1789C44.7998 36.5439 36.4003 44.9453 26.0389 44.9453ZM46.328 35.049L44.0808 34.9342L44.7311 33.4611L46.328 35.049ZM45.2292 37.2065L42.9968 36.9022C43.3402 36.3352 43.7922 35.4864 43.7922 35.4864L45.2292 37.2065ZM43.9139 39.2606L41.6841 38.6892L42.6447 37.377L43.9139 39.2606ZM42.3769 41.2216L40.2488 40.3528L41.3138 39.1345L42.3769 41.2216ZM39.7751 40.745L40.6218 42.9251L38.5867 41.8086L39.7751 40.745ZM38.0912 42.1608L38.6788 44.4139L36.7785 43.1008L38.0912 42.1608ZM36.5725 45.6836L34.8373 44.1661L36.2534 43.4017L36.5725 45.6836ZM36.8385 48.8951L34.7651 44.4139L36.5812 46.0279L36.8385 48.8951ZM39.2274 47.4715L36.7272 43.3495L38.6084 44.6609L39.2274 47.4715ZM41.5102 45.901L38.5563 42.0573L40.6218 43.2043L41.5102 45.901ZM43.6036 44.0774L40.2488 40.6015L42.3978 41.4894L43.6036 44.0774ZM45.4891 42.0373L41.738 38.9371L44.0295 39.5319L45.4891 42.0373ZM47.0869 39.8058L43.0489 37.15L45.3596 37.4657L47.0869 39.8058ZM48.45 37.397L44.1634 35.1968L46.4306 35.2942L48.45 37.397ZM49.5663 34.8664L45.0527 33.1611L47.3469 32.9706L49.5663 34.8664ZM50.433 32.2601L45.6891 31.0227L48.0449 30.6505L50.433 32.2601ZM46.115 28.8225L48.3796 28.1921L50.9076 29.5139L46.115 28.8225Z" fill="white"/>
</g>
<path fill-rule="evenodd" clip-rule="evenodd" d="M20.4833 10.4296L21.0547 12.1218L21.4559 11.9874L20.8825 10.2943L21.418 10.1135L21.2979 9.75671L19.8276 10.2536L19.9487 10.6104L20.4833 10.4296Z" fill="white"/>
<path fill-rule="evenodd" clip-rule="evenodd" d="M10.2449 20.7442C10.2918 20.7946 10.3457 20.8381 10.4065 20.8755C10.4691 20.912 10.5361 20.9468 10.6108 20.979C10.6865 21.0094 10.7664 21.0424 10.8534 21.0772C10.9394 21.1111 11.0203 21.1416 11.0977 21.1703C11.1733 21.1972 11.2463 21.219 11.3167 21.2338C11.3871 21.2485 11.4567 21.2538 11.5254 21.2485C11.5932 21.2442 11.6627 21.2259 11.7331 21.1955C11.8331 21.152 11.9192 21.0929 11.9922 21.019C12.0652 20.9442 12.1235 20.8511 12.1669 20.7407C12.2095 20.6329 12.233 20.525 12.2365 20.4172C12.24 20.3085 12.2156 20.1972 12.1626 20.0824C12.1174 19.9833 12.0522 19.9015 11.9679 19.8345C11.8844 19.7685 11.7705 19.7058 11.6253 19.6493L11.3315 19.5328L11.0316 20.2928L11.3593 20.4224L11.5054 20.052L11.5819 20.0824C11.6349 20.1033 11.681 20.1285 11.7192 20.1607C11.7575 20.192 11.7896 20.232 11.8149 20.2781C11.8383 20.3241 11.8496 20.3746 11.8505 20.4294C11.8522 20.4842 11.8409 20.5424 11.8175 20.6024C11.7957 20.6572 11.767 20.7016 11.7314 20.7363C11.6966 20.7711 11.6566 20.7972 11.6132 20.812C11.5854 20.8233 11.5558 20.8294 11.5262 20.8311C11.4958 20.8337 11.4584 20.8303 11.4141 20.8216C11.3698 20.8129 11.315 20.7972 11.2498 20.7746C11.1837 20.7529 11.1046 20.7224 11.0081 20.6842C10.9125 20.6468 10.8334 20.6137 10.7708 20.5859C10.7091 20.5589 10.6595 20.5328 10.6204 20.5094C10.5813 20.485 10.5526 20.4615 10.5317 20.4389C10.5109 20.4172 10.4943 20.3928 10.4804 20.3659C10.4604 20.325 10.4474 20.2798 10.4448 20.2294C10.4413 20.1789 10.4509 20.1267 10.4726 20.072C10.5126 19.9702 10.5691 19.8998 10.643 19.8615C10.7152 19.8232 10.8038 19.8119 10.9081 19.8267L11.0655 19.431C10.9751 19.411 10.8847 19.4041 10.7925 19.4102C10.7004 19.4163 10.6134 19.4389 10.53 19.478C10.4448 19.5163 10.3683 19.5737 10.2979 19.6476C10.2266 19.7224 10.1684 19.8172 10.1223 19.9346C10.0779 20.0467 10.0562 20.1554 10.0597 20.2589C10.0623 20.3615 10.0858 20.4633 10.1284 20.5633C10.1597 20.6337 10.1988 20.6946 10.2449 20.7442ZM21.4909 16.2445C21.5987 16.4645 21.7473 16.6471 21.9351 16.788C22.1229 16.928 22.3402 17.0332 22.581 17.0993C22.8218 17.1663 23.0843 17.2002 23.3582 17.2002C23.5494 17.2002 23.7415 17.1846 23.9302 17.1524C24.1197 17.1202 24.2823 17.0698 24.4161 17.0019C24.4483 16.9837 24.4674 16.9637 24.4761 16.9419C24.4831 16.9228 24.4866 16.888 24.4866 16.8202V16.3445C24.4866 16.0854 24.4883 15.8514 24.4909 15.7645L24.4926 15.4592C24.4926 15.4323 24.4744 15.4027 24.4327 15.4027C24.3162 15.4079 24.2397 15.4105 24.2066 15.4105C24.1779 15.4105 24.1006 15.4088 23.9737 15.4062C23.7885 15.4001 23.6581 15.3975 23.5799 15.3975C23.4799 15.3975 23.4599 15.4358 23.4599 15.4697C23.4599 15.4888 23.4686 15.5332 23.5529 15.5332C23.6277 15.5332 23.6824 15.5366 23.7163 15.5453C23.7772 15.5575 23.8198 15.5801 23.8406 15.6114C23.8641 15.6445 23.8763 15.6966 23.8789 15.7645C23.8824 15.8514 23.8841 16.0819 23.8841 16.3358V16.7428C23.8841 16.8124 23.8624 16.8558 23.818 16.8758C23.7763 16.895 23.7259 16.9071 23.6694 16.9132C23.6111 16.9193 23.5416 16.9219 23.4625 16.9219C23.2426 16.9219 23.0391 16.8819 22.8574 16.8028C22.6758 16.7245 22.5184 16.6115 22.3889 16.468C22.2602 16.3245 22.1585 16.1532 22.0898 15.9584C22.0212 15.7619 21.9846 15.5479 21.9846 15.3227C21.9846 15.0705 22.0194 14.8575 22.0864 14.6905C22.1542 14.5244 22.2498 14.3879 22.3724 14.2835C22.5045 14.1748 22.6392 14.1035 22.7731 14.0713C23.0939 13.9939 23.5051 14.0078 23.7911 14.127C23.958 14.1957 24.0815 14.2705 24.1553 14.3513C24.2014 14.4 24.2345 14.4522 24.2527 14.507C24.2718 14.5627 24.2857 14.6253 24.2953 14.6957C24.3057 14.7618 24.3405 14.7757 24.3675 14.7757C24.4022 14.7757 24.4431 14.7557 24.4431 14.6557C24.4431 14.4731 24.4457 14.3322 24.4518 14.2357C24.4579 14.1392 24.4631 14.0591 24.4692 13.9965C24.4718 13.9722 24.4735 13.9548 24.4735 13.9461C24.4735 13.9235 24.4657 13.8704 24.3866 13.8652C24.3431 13.8626 24.291 13.8565 24.2284 13.8478C24.1658 13.84 24.1058 13.8296 24.0493 13.8183C24.0258 13.8122 23.9867 13.8052 23.9337 13.7983C23.8815 13.7913 23.8146 13.7826 23.7337 13.7739C23.652 13.7661 23.5738 13.7591 23.499 13.7548C23.1965 13.7365 22.9139 13.7548 22.6645 13.8052C22.4784 13.8426 22.2872 13.92 22.0977 14.0339C21.8768 14.1661 21.6917 14.3592 21.5482 14.6061C21.4039 14.8548 21.33 15.147 21.33 15.474C21.33 15.7662 21.3839 16.0254 21.4909 16.2445ZM26.6593 16.9978L26.5515 16.9873C26.4984 16.9795 26.4637 16.963 26.4454 16.9369C26.4245 16.9073 26.4106 16.863 26.4028 16.8004C26.395 16.7177 26.3898 16.6064 26.388 16.4682C26.3863 16.3282 26.3854 16.1238 26.3854 15.856V14.4263C26.3854 14.3324 26.3889 14.2498 26.395 14.1776C26.4002 14.1054 26.4124 14.0506 26.4315 14.0176C26.4489 13.9871 26.4819 13.9671 26.5306 13.9576C26.5801 13.9489 26.6219 13.9445 26.6558 13.9445C26.7444 13.9445 26.7531 13.8941 26.7531 13.8724C26.7531 13.8089 26.6627 13.8089 26.6332 13.8089C26.5732 13.8089 26.4671 13.8115 26.3176 13.8176C26.2107 13.8202 26.1403 13.8219 26.1055 13.8219C26.0629 13.8219 25.9803 13.8202 25.8603 13.8176C25.7039 13.8115 25.5987 13.8089 25.543 13.8089C25.5074 13.8089 25.41 13.8089 25.41 13.8724C25.41 13.8941 25.4205 13.9445 25.5091 13.9445C25.5665 13.9445 25.6161 13.9506 25.6578 13.9611C25.7343 13.9784 25.7752 14.0489 25.7821 14.1776C25.7882 14.2498 25.7917 14.3324 25.7917 14.4263V15.856C25.7917 16.1212 25.7899 16.3229 25.7873 16.4629C25.7838 16.6021 25.7786 16.7134 25.7691 16.796C25.756 16.9117 25.7221 16.976 25.6674 16.9873C25.6161 16.9986 25.5656 17.0047 25.5178 17.0047C25.4326 17.0047 25.4187 17.0439 25.4187 17.0682C25.4187 17.1004 25.4396 17.1395 25.5344 17.1395C25.5952 17.1395 25.7091 17.1369 25.8777 17.1308C25.989 17.1282 26.0577 17.1265 26.0803 17.1265C26.1203 17.1265 26.1863 17.1282 26.2785 17.1308C26.4741 17.1369 26.6332 17.1395 26.7549 17.1395C26.847 17.1395 26.8653 17.1004 26.8653 17.0682C26.8653 17.0439 26.854 17.0047 26.7679 17.0047C26.734 17.0047 26.6984 17.0021 26.6593 16.9978ZM27.2998 17.1358C27.3763 17.1358 27.4528 17.134 27.5336 17.1314C27.6119 17.1288 27.6736 17.1271 27.7266 17.1271C27.7744 17.1245 27.8031 17.1227 27.8109 17.1227C27.8492 17.1227 27.9231 17.1262 28.0352 17.1314C28.1369 17.134 28.2152 17.1358 28.2699 17.1358C28.3595 17.1358 28.3725 17.0906 28.3725 17.0636C28.3725 17.0401 28.3603 17.0001 28.2778 17.0001H28.2143C28.1587 17.0001 28.1195 16.9914 28.0987 16.9732C28.0796 16.9558 28.07 16.9297 28.07 16.8949C28.07 16.8297 28.0909 16.7444 28.1326 16.641L28.3786 16.0061L29.3601 16.0174L29.7043 16.934C29.7043 16.934 29.7261 17.001 29.7434 17.0505C29.7591 17.094 29.7773 17.1358 29.8286 17.1358C29.873 17.1358 29.9234 17.1332 29.9773 17.1314C30.0381 17.1297 30.1033 17.1271 30.1668 17.1271L30.5806 17.1358C30.6641 17.1358 30.7188 17.1332 30.7475 17.1271C30.804 17.1149 30.8092 17.0792 30.8092 17.0636C30.8092 17.0488 30.804 17.0001 30.7249 17.0001C30.6632 17.0001 30.6032 16.994 30.5484 16.9836C30.4945 16.9714 30.438 16.9349 30.3815 16.8749C30.3242 16.8149 30.259 16.6984 30.1885 16.5288L29.2445 14.1825C29.1784 14.0147 29.1349 13.9086 29.1141 13.866C29.068 13.7582 29.0263 13.7095 28.9793 13.7095C28.9593 13.7095 28.928 13.7182 28.9011 13.7582C28.8811 13.7834 28.8611 13.826 28.8315 13.9008L27.7457 16.6201C27.6971 16.7418 27.6475 16.8331 27.598 16.8923C27.5519 16.9479 27.4858 16.9818 27.4015 16.9914C27.3563 16.9975 27.3119 17.0001 27.2702 17.0001C27.1955 17.0001 27.1894 17.0488 27.1894 17.0636C27.1894 17.0906 27.2041 17.1358 27.2998 17.1358ZM28.8698 14.6834L29.261 15.7322L28.4751 15.7409L28.8698 14.6834Z" fill="white"/>
<path fill-rule="evenodd" clip-rule="evenodd" d="M24.3225 11.3505L24.2601 10.9786L23.2714 11.1423L23.1853 10.6246L24.0283 10.4845L23.9659 10.1126L23.1238 10.2526L23.0415 9.75199L24.0302 9.58731L23.9687 9.21631L22.5637 9.44913L22.9166 11.5833L24.3225 11.3505Z" fill="white"/>
<path fill-rule="evenodd" clip-rule="evenodd" d="M11.4252 23.177C11.4478 23.0657 11.4521 22.9588 11.4391 22.8553C11.4252 22.7527 11.3912 22.6605 11.3356 22.5761C11.2878 22.5048 11.2339 22.4474 11.1722 22.4039C11.1105 22.3605 11.0444 22.3257 10.9731 22.2987C10.9027 22.2718 10.8288 22.2509 10.7506 22.2352L10.5124 22.1865L10.2803 22.1396C10.2029 22.1239 10.1281 22.1144 10.0534 22.1126C9.97947 22.11 9.90731 22.117 9.83603 22.1335C9.76387 22.15 9.69259 22.1822 9.62131 22.2291C9.53785 22.2848 9.47004 22.3578 9.41788 22.4474C9.36485 22.537 9.32747 22.6379 9.30574 22.7483L9.151 23.5144L11.2713 23.9423L11.4252 23.177ZM11.0479 23.1414L10.9844 23.4544L9.60392 23.1753L9.66738 22.8622C9.68129 22.7909 9.70389 22.7326 9.73606 22.6866C9.76822 22.6413 9.80995 22.6057 9.86037 22.5787C9.88819 22.5639 9.91861 22.5535 9.94991 22.5474C9.98294 22.5413 10.0212 22.5396 10.0655 22.5431C10.1107 22.5457 10.1629 22.5518 10.2211 22.5622C10.2811 22.5718 10.3498 22.5848 10.4289 22.6013C10.5906 22.6326 10.7114 22.6631 10.7949 22.6918C10.8783 22.7196 10.9392 22.757 10.9801 22.8048C11.0157 22.8492 11.04 22.8987 11.0522 22.9527C11.0635 23.0074 11.0626 23.0701 11.0479 23.1414ZM25.2397 10.4614C25.2431 10.5431 25.2501 10.6179 25.264 10.6892C25.2762 10.7605 25.2988 10.8257 25.3283 10.8875C25.3579 10.9492 25.4014 11.0066 25.4561 11.0597C25.5344 11.1362 25.6213 11.1945 25.7178 11.2327C25.8143 11.2727 25.923 11.2919 26.0429 11.2901C26.1577 11.2884 26.2663 11.2684 26.3681 11.231C26.4698 11.1936 26.5628 11.1284 26.6488 11.0362C26.7227 10.9571 26.7749 10.8657 26.8045 10.7631C26.8358 10.6605 26.8497 10.5309 26.8479 10.3753L26.8436 10.0587L26.0273 10.0692L26.0316 10.4214L26.4289 10.4162L26.4306 10.4988C26.4306 10.5553 26.4246 10.6075 26.4089 10.6553C26.395 10.7031 26.3707 10.7475 26.3368 10.7883C26.3029 10.8275 26.2611 10.8579 26.2098 10.8797C26.1603 10.9014 26.102 10.9127 26.0368 10.9136C25.9786 10.9144 25.9264 10.9049 25.8804 10.8849C25.8352 10.8657 25.7969 10.8388 25.7665 10.804C25.7447 10.7831 25.7282 10.7579 25.7152 10.731C25.7013 10.704 25.69 10.6675 25.6813 10.6231C25.6726 10.5788 25.6665 10.5222 25.663 10.4535C25.6596 10.3848 25.6561 10.2988 25.6543 10.1953C25.6535 10.0927 25.6543 10.0066 25.6561 9.93873C25.6587 9.8709 25.6639 9.81437 25.6709 9.77002C25.6787 9.72567 25.6882 9.68915 25.7013 9.66132C25.7152 9.63436 25.7308 9.61001 25.7508 9.58653C25.7804 9.55175 25.8186 9.52305 25.8638 9.50218C25.909 9.48044 25.9612 9.46914 26.0203 9.46827C26.129 9.46653 26.2151 9.49262 26.2794 9.54566C26.342 9.59784 26.3863 9.6761 26.4124 9.77872L26.8375 9.7735C26.8218 9.68306 26.794 9.5961 26.7532 9.51436C26.7132 9.43087 26.6593 9.35869 26.5915 9.29521C26.5237 9.2326 26.4428 9.18216 26.3472 9.14477C26.2507 9.10737 26.1403 9.08998 26.0142 9.09085C25.8934 9.09346 25.7856 9.11433 25.6908 9.15607C25.5961 9.19781 25.5118 9.25695 25.4353 9.33608C25.3814 9.39087 25.3405 9.44913 25.311 9.51175C25.2823 9.57349 25.2631 9.64045 25.2518 9.71089C25.2405 9.7822 25.2336 9.85786 25.2327 9.93873C25.2318 10.0205 25.2318 10.1074 25.2336 10.2005C25.2345 10.2935 25.2362 10.3805 25.2397 10.4614Z" fill="white"/>
<path fill-rule="evenodd" clip-rule="evenodd" d="M40.3817 30.3273L40.7479 30.4115L40.9702 29.4566L42.7082 29.8598L42.8047 29.449L40.6987 28.9597L40.3817 30.3273Z" fill="white"/>
<path fill-rule="evenodd" clip-rule="evenodd" d="M11.1461 27.3224L10.7734 27.3697L10.8954 28.3426L9.12524 28.5679L9.17823 28.9862L11.324 28.7146L11.1461 27.3224Z" fill="white"/>
<path fill-rule="evenodd" clip-rule="evenodd" d="M12.7311 34.6327C12.8007 34.5909 12.8633 34.5474 12.918 34.5022C12.9737 34.4561 13.0206 34.4057 13.0606 34.3492C13.0997 34.2935 13.1293 34.2274 13.1493 34.1535C13.1788 34.0483 13.1875 33.9448 13.1753 33.8422C13.164 33.7387 13.1275 33.6343 13.0667 33.5265C13.0058 33.4187 12.9345 33.3343 12.8528 33.2726C12.7711 33.2108 12.6781 33.1656 12.5738 33.136C12.499 33.1152 12.4277 33.1082 12.3599 33.1126C12.2921 33.1169 12.2243 33.1317 12.1556 33.1552C12.087 33.1795 12.0174 33.21 11.9461 33.2482C11.8748 33.2865 11.7992 33.3282 11.7175 33.3752C11.6366 33.4204 11.5619 33.4648 11.4932 33.5065C11.4237 33.5482 11.3602 33.5917 11.3063 33.6387C11.2515 33.6848 11.2037 33.7361 11.1646 33.7926C11.1255 33.8483 11.0959 33.9135 11.0751 33.9883C11.0464 34.0926 11.0377 34.1961 11.049 34.2987C11.0603 34.4005 11.0959 34.5048 11.1568 34.6127C11.2176 34.7196 11.2889 34.8048 11.3715 34.8675C11.4532 34.9301 11.5471 34.977 11.6514 35.0049C11.7262 35.0257 11.7975 35.0336 11.8653 35.0283C11.934 35.0231 12.0018 35.0092 12.0696 34.9849C12.1365 34.9605 12.2061 34.9292 12.2773 34.8901C12.3486 34.8527 12.4251 34.8101 12.506 34.764C12.5868 34.7187 12.6616 34.6744 12.7311 34.6327ZM12.073 34.5196C12.0122 34.5509 11.96 34.5735 11.9183 34.5883C11.8748 34.604 11.8383 34.6118 11.8079 34.6135C11.7783 34.6161 11.7488 34.6135 11.7192 34.6074C11.674 34.5979 11.6314 34.5779 11.5897 34.5483C11.548 34.5179 11.5132 34.4779 11.4836 34.4266C11.455 34.3753 11.4384 34.3248 11.435 34.2744C11.4306 34.2239 11.4367 34.1778 11.4515 34.1344C11.4602 34.1057 11.4732 34.0778 11.4906 34.0526C11.5071 34.0265 11.5332 33.9996 11.5671 33.97C11.6019 33.9413 11.6479 33.9083 11.7062 33.8717C11.7627 33.8361 11.8366 33.7926 11.9261 33.7413C12.0157 33.6909 12.0913 33.65 12.1513 33.6187C12.2113 33.5882 12.2634 33.5648 12.306 33.55C12.3486 33.5352 12.3851 33.5274 12.4156 33.5265C12.4469 33.5248 12.4773 33.5274 12.5068 33.5343C12.5512 33.5439 12.5946 33.563 12.6355 33.5926C12.6755 33.6213 12.7111 33.6613 12.7398 33.7126C12.7685 33.763 12.785 33.8143 12.7902 33.8657C12.7946 33.917 12.7894 33.9639 12.7737 34.0074C12.7642 34.0352 12.7511 34.0622 12.7337 34.0874C12.7172 34.1126 12.6911 34.1396 12.6564 34.1683C12.6216 34.1978 12.5755 34.23 12.5181 34.2665C12.4608 34.3031 12.3869 34.3457 12.2982 34.397C12.2087 34.4474 12.1322 34.4892 12.073 34.5196Z" fill="white"/>
<path fill-rule="evenodd" clip-rule="evenodd" d="M12.0004 31.2548L10.6295 31.2889L11.7506 30.4986L11.6399 30.1636L9.40332 30.2904L9.5424 30.7097L10.9426 30.6018L9.77136 31.4053L9.8707 31.7053L11.2899 31.6523L10.0987 32.3981L10.2368 32.8164L12.1101 31.5898L12.0004 31.2548Z" fill="white"/>
<path fill-rule="evenodd" clip-rule="evenodd" d="M39.5663 32.5004L39.9154 32.6423L40.2929 31.7129L40.7783 31.9117L40.4575 32.7019L40.8066 32.8439L41.1283 32.0536L41.5976 32.2448L41.2201 33.1723L41.5682 33.3152L42.1047 31.995L40.1018 31.181L39.5663 32.5004Z" fill="white"/>
<path fill-rule="evenodd" clip-rule="evenodd" d="M38.9219 33.7023L40.0487 34.4027L38.4687 34.4292L38.27 34.749L40.1064 35.8904L40.3278 35.5327L39.2048 34.8333L40.7819 34.8049L40.9816 34.4859L39.1442 33.3427L38.9219 33.7023Z" fill="white"/>
<path fill-rule="evenodd" clip-rule="evenodd" d="M14.8151 36.0239L13.7943 36.8728L14.2673 35.3642L14.0261 35.0746L12.3638 36.4573L12.6334 36.7829L13.6514 35.9358L13.1812 37.4416L13.4215 37.7312L15.0848 36.3485L14.8151 36.0239Z" fill="white"/>
<path fill-rule="evenodd" clip-rule="evenodd" d="M28.0403 42.2218C27.9795 42.1488 27.9091 42.0948 27.8282 42.0609C27.896 42.0174 27.9499 41.9574 27.9908 41.8844C28.0325 41.8105 28.049 41.7148 28.0386 41.5983C28.0308 41.507 28.0073 41.4252 27.9682 41.3522C27.9299 41.2791 27.8786 41.2183 27.8152 41.1687C27.7526 41.1191 27.6795 41.0826 27.5961 41.06C27.5126 41.0365 27.424 41.0287 27.3292 41.0374C27.2388 41.0452 27.1545 41.0661 27.0771 41.1017C26.9997 41.1365 26.9345 41.1826 26.8806 41.2409C26.8267 41.2974 26.7859 41.3661 26.7563 41.4444C26.7276 41.5235 26.7163 41.6113 26.7224 41.7087L27.1154 41.6748C27.1127 41.5913 27.1336 41.5252 27.1797 41.4757C27.2249 41.4261 27.2849 41.3974 27.3596 41.3913C27.4301 41.3852 27.4935 41.4026 27.55 41.4452C27.6065 41.487 27.6387 41.5539 27.6465 41.6435C27.6526 41.7209 27.637 41.787 27.5996 41.8418C27.5613 41.8974 27.4944 41.9287 27.397 41.9366L27.3396 41.9427L27.3692 42.2844L27.4266 42.2783C27.5239 42.2714 27.6004 42.2914 27.6578 42.3401C27.7135 42.3888 27.7465 42.4592 27.7543 42.5505C27.763 42.647 27.7421 42.7236 27.6917 42.7801C27.6413 42.8358 27.5744 42.8671 27.49 42.8749C27.4518 42.8784 27.4144 42.8758 27.3788 42.8679C27.3423 42.8592 27.3092 42.8453 27.2823 42.8245C27.2536 42.8036 27.2292 42.7758 27.2101 42.7418C27.191 42.7079 27.1788 42.6671 27.1727 42.6192L26.7789 42.6531C26.7911 42.7653 26.8189 42.8601 26.865 42.9358C26.9102 43.0123 26.9667 43.074 27.0345 43.1201C27.1023 43.1662 27.1779 43.1975 27.2614 43.2149C27.3457 43.2314 27.4318 43.2367 27.5205 43.2288C27.6126 43.221 27.6995 43.2001 27.7804 43.1671C27.8604 43.134 27.9299 43.0879 27.9873 43.0288C28.0455 42.9697 28.089 42.8984 28.1186 42.8149C28.1481 42.7305 28.1577 42.6349 28.149 42.5288C28.1377 42.3975 28.1012 42.2949 28.0403 42.2218Z" fill="white"/>
<path fill-rule="evenodd" clip-rule="evenodd" d="M29.6198 40.6812L29.2849 41.1591L29.3871 41.5727L29.722 41.0938L30.1421 42.7813L30.5243 42.6867L30.004 40.5865L29.6198 40.6812Z" fill="white"/>
<path fill-rule="evenodd" clip-rule="evenodd" d="M16.3204 38.3558L15.8918 38.4334L16.0952 37.3214L15.7177 37.0062L15.4726 38.4987L14.3723 38.7003L14.7659 39.0287L15.9542 38.794L15.3525 39.5171L15.6751 39.7878L17.0612 38.1268L16.7366 37.8561L16.3204 38.3558Z" fill="white"/>
<path fill-rule="evenodd" clip-rule="evenodd" d="M25.3406 41.2615C25.2841 41.2006 25.2163 41.1528 25.1372 41.1171C25.0572 41.0815 24.9703 41.0606 24.8764 41.0528C24.7817 41.0467 24.6921 41.0554 24.6078 41.0797C24.5243 41.1032 24.4496 41.1423 24.3852 41.1945C24.3209 41.2484 24.2679 41.3154 24.2279 41.3963C24.187 41.4771 24.1627 41.5711 24.1549 41.6763C24.1479 41.7763 24.1566 41.8685 24.1836 41.9494C24.2096 42.0302 24.247 42.0998 24.2957 42.1581C24.3444 42.2172 24.4009 42.2633 24.4678 42.2981C24.5339 42.332 24.6034 42.352 24.6756 42.3572C24.7026 42.3589 24.7295 42.3589 24.7565 42.3572C24.7843 42.3555 24.8112 42.3502 24.8382 42.3416L24.3253 43.199L24.7512 43.2303L25.2763 42.332C25.3319 42.2363 25.3815 42.1441 25.4232 42.0537C25.4649 41.9633 25.4902 41.8685 25.4971 41.7693C25.5049 41.6632 25.4954 41.5659 25.4667 41.4815C25.4397 41.3963 25.3971 41.3232 25.3406 41.2615ZM25.1042 41.7441C25.0972 41.8441 25.0651 41.9207 25.0077 41.9711C24.952 42.0215 24.8834 42.0441 24.8025 42.0381C24.7182 42.0311 24.653 41.9981 24.6069 41.9389C24.56 41.878 24.5409 41.7989 24.5487 41.7015C24.5556 41.6015 24.5878 41.5258 24.6443 41.4754C24.6999 41.4241 24.7686 41.4024 24.8495 41.4085C24.9303 41.4137 24.9946 41.4458 25.0433 41.505C25.0911 41.5632 25.112 41.6424 25.1042 41.7441Z" fill="white"/>
<path fill-rule="evenodd" clip-rule="evenodd" d="M22.0064 40.985L21.9109 41.4005L22.4265 41.1251L22.0377 42.8192L22.4218 42.9091L22.9062 40.7995L22.5211 40.7106L22.0064 40.985Z" fill="white"/>
<path fill-rule="evenodd" clip-rule="evenodd" d="M18.433 40.5903L18.7584 41.5784L19.7471 41.2547L19.4226 40.2648L18.433 40.5903Z" fill="white"/>
<path fill-rule="evenodd" clip-rule="evenodd" d="M40.8453 28.0701L41.2209 28.0975L41.2919 27.1189L43.0725 27.2486L43.1027 26.8264L40.9475 26.6703L40.8453 28.0701Z" fill="white"/>
<path fill-rule="evenodd" clip-rule="evenodd" d="M30.8987 30.5946L31.116 30.3345L30.9526 30.198L31.3846 29.6849L30.9326 29.3058L30.5014 29.8189L30.3388 29.6815L30.1476 29.9084C30.1511 29.9102 30.1519 29.9119 30.1554 29.9145C30.3858 30.0841 30.6744 30.2971 30.8987 30.5946Z" fill="white"/>
<path fill-rule="evenodd" clip-rule="evenodd" d="M40.9542 25.722L41.3298 25.6908L41.2484 24.6923L41.7726 24.6487L41.8416 25.4996L42.2172 25.4693L42.1482 24.6185L42.6534 24.5759L42.7347 25.5762L43.1104 25.546L42.994 24.1254L40.8387 24.3005L40.9542 25.722Z" fill="white"/>
<path fill-rule="evenodd" clip-rule="evenodd" d="M21.3327 33.7816L20.24 31.518H19.3959V31.6215C19.3959 31.6215 20.6155 32.9824 21.3327 33.7816ZM29.3535 32.0097L29.8073 31.4705L30.016 31.6462L30.1655 31.4679C30.0925 31.2009 29.8664 31.0201 29.5257 30.7696C29.5048 30.754 29.4857 30.7383 29.4648 30.7227L29.2379 30.9922L29.4431 31.1653L28.9902 31.7045L29.3535 32.0097Z" fill="white"/>
<path fill-rule="evenodd" clip-rule="evenodd" d="M29.2182 33.2254H29.2165L28.9696 33.8889H30.2727L30.1614 33.2924C30.5996 33.0758 30.9386 32.528 31.0064 31.8427C31.0125 31.7853 31.0151 31.7297 31.0151 31.6749C31.016 31.6514 31.0143 31.6271 31.0143 31.6027C31.0125 31.5749 31.0125 31.5462 31.0099 31.5201C31.0073 31.4888 31.003 31.4592 30.9986 31.4297C30.996 31.4114 30.9943 31.3923 30.9908 31.374C30.9856 31.341 30.9769 31.307 30.9691 31.2749C30.9656 31.2636 30.9647 31.2505 30.9604 31.2392C30.9499 31.2036 30.9378 31.1688 30.9265 31.1349C30.9238 31.1279 30.9212 31.1201 30.9178 31.1123C30.9047 31.0757 30.8891 31.0401 30.8726 31.007C30.8708 31.0027 30.8682 30.9992 30.8673 30.9957C30.85 30.9583 30.8308 30.9235 30.8108 30.8896C30.8091 30.8888 30.8091 30.8861 30.8082 30.8844C30.7874 30.8488 30.7656 30.814 30.7422 30.7818C30.5379 30.4887 30.2536 30.2792 30.0154 30.1035C30.0084 30.0983 30.0032 30.0939 29.9971 30.0896C29.9328 30.0417 29.8702 29.9957 29.8128 29.9504L29.4451 30.4122C29.4973 30.4539 29.5573 30.4974 29.6164 30.5418C29.6329 30.554 29.6485 30.5661 29.6659 30.5792C29.9415 30.7818 30.204 30.9801 30.3371 31.2636C30.3371 31.2644 30.3397 31.2679 30.3397 31.2705C30.3649 31.3244 30.3849 31.3836 30.3979 31.4453C30.404 31.474 30.4101 31.5036 30.4162 31.5331C30.4179 31.5566 30.4196 31.5775 30.4214 31.6001C30.4257 31.6584 30.4266 31.7192 30.4205 31.7836C30.3614 32.3636 30.0189 32.8663 29.4929 32.8184L28.1942 31.7271L27.8821 32.0993L29.2182 33.2254Z" fill="white"/>
<path fill-rule="evenodd" clip-rule="evenodd" d="M19.3943 31.1166V31.1961H21.4757L20.3035 30.438L19.3943 31.1166Z" fill="white"/>
<path fill-rule="evenodd" clip-rule="evenodd" d="M22.5647 31.1962H24.684V31.1157L23.806 30.4825L22.5647 31.1962Z" fill="white"/>
<path fill-rule="evenodd" clip-rule="evenodd" d="M21.8315 34.13V31.5188H20.5703L21.8315 34.13Z" fill="white"/>
<path fill-rule="evenodd" clip-rule="evenodd" d="M22.6583 33.8167L24.6849 31.622V31.5188H23.8722L22.6583 33.8167Z" fill="white"/>
<path fill-rule="evenodd" clip-rule="evenodd" d="M22.1228 31.5179V34.1897L23.5344 31.5179H22.1228Z" fill="white"/>
<path fill-rule="evenodd" clip-rule="evenodd" d="M28.8317 33.2101L27.8799 32.4094L27.6292 32.9593L28.3274 33.5451L28.8317 33.2101Z" fill="white"/>
<path fill-rule="evenodd" clip-rule="evenodd" d="M20.7159 30.3301L21.997 31.1573L23.4369 30.3301H20.7159Z" fill="white"/>
</g>
<defs>
<clipPath id="clip0_95_561">
<rect width="158" height="53" fill="white"/>
</clipPath>
</defs>
</svg>
