<svg width="525" height="525" viewBox="0 0 525 525" fill="none" xmlns="http://www.w3.org/2000/svg">
<path d="M166.025 506.828L165.242 504.184L161.382 493.722H142.866L138.699 504.184L137.832 506.828H136.35L151.9 467.594H153.131L167.395 506.828H165.997H166.025ZM152.6 469.675H152.348L143.342 492.456H160.906L152.572 469.675H152.6Z" fill="white"/>
<path d="M207.307 468.831H195.364V506.828H194.134V468.831H182.079L181.883 468.578L182.135 467.594H207.363L207.559 467.847L207.307 468.831Z" fill="white"/>
<path d="M246.072 506.828H227.025V467.594H245.876L246.072 467.847L245.82 468.831H228.256V485.903H242.827L243.023 486.156L242.771 487.141H228.256V505.619H246.128L246.323 505.872L246.072 506.856V506.828Z" fill="white"/>
<path d="M282.963 506.828H265.818V467.594H267.049V505.591H283.047L283.243 505.844L282.991 506.828H282.963Z" fill="white"/>
<path d="M301.283 506.828V467.594H302.513V506.828H301.283Z" fill="white"/>
<path d="M346.033 506.828H326.986V467.594H345.837L346.033 467.847L345.781 468.831H328.217V485.903H342.789L342.985 486.156L342.733 487.141H328.217V505.619H346.089L346.285 505.872L346.033 506.856V506.828Z" fill="white"/>
<path d="M387.623 506.519V506.772C387.371 507.025 387.203 507.138 386.896 507.278L386.532 507.166C382.421 501.738 378.645 496.253 375.261 490.656H367.066V506.856H365.835V467.622L374.477 467.51C381.582 467.51 385.553 471.335 385.553 478.281C385.553 484.328 382.365 488.631 376.547 490.403C379.903 495.944 383.595 501.231 387.623 506.547V506.519ZM375.764 489.391C381.274 487.985 384.35 483.963 384.35 478.253C384.35 472.544 380.994 468.944 374.925 468.719L367.094 468.775V489.419H375.792L375.764 489.391Z" fill="white"/>
<path d="M185.826 306.861L190.133 306.664C200.174 306.242 202.02 303.767 202.02 275.501V200.408C202.02 172.143 200.174 169.668 190.133 169.246L185.826 169.049V168.43H253.12C298.457 168.43 322.455 199.789 322.455 237.758C322.455 275.726 297.227 307.479 253.315 307.479H185.826V306.861ZM230.353 169.274C221.319 169.274 220.703 172.565 220.703 200.436V275.53C220.703 303.373 221.319 306.692 230.353 306.692H253.12C287.801 306.692 301.338 273.055 301.338 237.983C301.338 202.911 285.116 169.274 253.12 169.274H230.353Z" fill="white"/>
<path d="M297.478 418.432C288.249 418.432 279.41 416.576 269.985 410.388C266.908 408.335 265.062 407.294 262.405 407.294C257.902 407.294 253.176 411.822 248.057 418.432H247.638V372.223H248.253L250.714 379.845C256.056 396.129 268.978 417.588 297.283 417.588C315.546 417.588 329.279 409.347 329.279 390.363C329.279 348.485 253.371 356.951 253.371 310.517C253.371 288.636 271.439 274.011 293.787 274.011C302.401 274.011 309.981 276.289 317.169 281.014C319.826 282.87 321.895 283.911 323.937 283.911C327.433 283.911 331.74 279.776 336.439 274.011H336.859V314.032H336.243L333.978 306.804C327.825 285.964 311.407 274.826 294.374 274.826C277.341 274.826 267.691 283.686 267.691 297.523C267.691 340.217 344.634 331.779 344.634 380.463C344.634 403.16 324.524 418.432 297.45 418.432H297.478Z" fill="white"/>
<path d="M269.705 111.084H221.487L217.599 121.406C213.711 131.502 211.642 142.443 211.642 151.527C211.642 160.612 213.488 167.643 223.137 168.262L227.444 168.458V169.077H185.798V168.458L188.064 168.262C196.482 167.446 200.37 164.324 216.788 121.406L252.476 27.7218H254.742L298.038 134.174C310.148 163.874 312.19 166.968 320.609 168.008L322.259 168.205V168.824H273.229V168.205L278.571 168.008C291.689 167.587 288.221 159.149 278.991 135.215L269.761 111.084H269.705ZM221.906 110.268H269.314L245.512 48.1685L221.906 110.268Z" fill="white"/>
</svg>
