<svg width="171" height="16" viewBox="0 0 171 16" fill="none" xmlns="http://www.w3.org/2000/svg">
<path d="M9.35193 9.30343H3.98037L3.54486 10.4467C3.10932 11.5658 2.87939 12.7757 2.87939 13.7859C2.87939 14.7961 3.08513 15.5462 4.16188 15.6127L4.63978 15.6369V15.7035H0V15.6369L0.254164 15.6127C1.19178 15.522 1.62719 15.2013 3.45403 10.4467L7.42835 0.0724487H7.68251L12.5037 11.8622C13.8526 15.1529 14.0824 15.4978 15.02 15.6127L15.2015 15.6369V15.7035H9.73916V15.6369L10.332 15.6127C11.7959 15.5643 11.4088 14.6327 10.3804 11.9772L9.35193 9.30343ZM4.02276 9.21268H9.30364L6.65404 2.33482L4.02882 9.21268H4.02276Z" fill="white"/>
<path d="M21.3008 15.6362L21.7787 15.612C22.8978 15.5636 23.1036 15.2914 23.1036 12.164V3.8464C23.1036 0.712955 22.8978 0.440774 21.7787 0.39843L21.3008 0.37421V0.307678H28.7957C33.8468 0.307678 36.5205 3.77992 36.5205 7.98406C36.5205 12.1882 33.7077 15.7088 28.82 15.7088H21.3008V15.6422V15.6362ZM26.2612 0.392375C25.257 0.392375 25.1844 0.755367 25.1844 3.84042V12.158C25.1844 15.243 25.251 15.606 26.2612 15.606H28.7957C32.6551 15.606 34.1673 11.8797 34.1673 7.99617C34.1673 4.11263 32.3647 0.38632 28.7957 0.38632H26.2612V0.392375Z" fill="white"/>
<path d="M51.2513 16C50.223 16 49.2431 15.7943 48.1906 15.1107C47.8458 14.8809 47.64 14.766 47.3436 14.766C46.8415 14.766 46.3153 15.2681 45.7467 16H45.6982V10.8824H45.7648L46.037 11.7293C46.6298 13.5319 48.0696 15.9092 51.2272 15.9092C53.2597 15.9092 54.7901 14.9958 54.7901 12.8907C54.7901 8.25105 46.3334 9.18867 46.3334 4.04691C46.3334 1.62725 48.3417 0 50.8339 0C51.7958 0 52.6366 0.254081 53.4412 0.774307C53.7376 0.979977 53.9674 1.09493 54.1973 1.09493C54.5844 1.09493 55.0684 0.635159 55.5886 0H55.6369V4.43406H55.5705L55.3165 3.63553C54.6329 1.32477 52.8 0.0907518 50.9066 0.0907518C49.0132 0.0907518 47.9364 1.07073 47.9364 2.60721C47.9364 7.33763 56.5081 6.39998 56.5081 11.7958C56.5081 14.3122 54.2698 16 51.2513 16Z" fill="white"/>
<path d="M67.3042 11.6335C66.6206 11.6335 66.1367 11.1314 66.1367 10.351C66.1367 9.61909 66.6145 9.11707 67.2799 9.11707C67.9453 9.11707 68.4475 9.61909 68.4475 10.351C68.4475 11.083 67.9696 11.6335 67.3042 11.6335Z" fill="white"/>
<path d="M87.3578 15.7045L87.0614 14.7246L85.6217 10.841H78.7197L77.165 14.7246L76.8444 15.7045H76.2939L82.101 1.14423H82.5608L87.884 15.7045H87.3578ZM82.3552 1.92459H82.2644L78.9072 10.3813H85.4644L82.3552 1.92459Z" fill="white"/>
<path d="M102.776 1.60432H98.3179V15.7049H97.8581V1.60432H93.3576L93.291 1.51357L93.3818 1.15063H102.8L102.867 1.24139L102.776 1.60432Z" fill="white"/>
<path d="M117.241 15.7045H110.133V1.14423H117.174L117.241 1.23498L117.15 1.59791H110.593V7.93134H116.031L116.097 8.02209L116.006 8.38502H110.593V15.2387H117.265L117.331 15.3295L117.241 15.6924V15.7045Z" fill="white"/>
<path d="M131.005 15.7045H124.604V1.14423H125.064V15.2448H131.029L131.095 15.3355L131.005 15.6985V15.7045Z" fill="white"/>
<path d="M137.835 15.7045V1.14423H138.295V15.7045H137.835Z" fill="white"/>
<path d="M154.549 15.7045H147.441V1.14423H154.483L154.549 1.23498L154.458 1.59791H147.901V7.93134H153.339L153.406 8.02209L153.315 8.38502H147.901V15.2387H154.573L154.64 15.3295L154.549 15.6924V15.7045Z" fill="white"/>
<path d="M170.064 15.5898V15.6805C169.973 15.7713 169.907 15.8197 169.792 15.862L169.652 15.8136C168.122 13.8053 166.706 11.7667 165.448 9.68582H162.387V15.6987H161.928V1.13839L165.152 1.09003C167.801 1.09003 169.289 2.50551 169.289 5.08849C169.289 7.32667 168.104 8.92973 165.932 9.58909C167.19 11.6458 168.558 13.6117 170.07 15.5777L170.064 15.5898ZM165.63 9.23819C167.686 8.71192 168.83 7.2299 168.83 5.1006C168.83 2.97131 167.571 1.65261 165.309 1.55582L162.381 1.57997V9.23819H165.624H165.63Z" fill="white"/>
</svg>
